<svg width="20" height="20" viewBox="0 0 20 20" fill="none" xmlns="http://www.w3.org/2000/svg">
<path d="M7.9752 15.6833C7.81686 15.6833 7.65853 15.625 7.53353 15.5L2.4752 10.4416C2.23353 10.2 2.23353 9.79998 2.4752 9.55831L7.53353 4.49998C7.7752 4.25831 8.1752 4.25831 8.41686 4.49998C8.65853 4.74164 8.65853 5.14164 8.41686 5.38331L3.8002 9.99998L8.41686 14.6166C8.65853 14.8583 8.65853 15.2583 8.41686 15.5C8.3002 15.625 8.13353 15.6833 7.9752 15.6833Z" fill="#FAFAFA"/>
<path d="M17.0831 10.625H3.05811C2.71644 10.625 2.43311 10.3417 2.43311 10C2.43311 9.65833 2.71644 9.375 3.05811 9.375H17.0831C17.4248 9.375 17.7081 9.65833 17.7081 10C17.7081 10.3417 17.4248 10.625 17.0831 10.625Z" fill="#FAFAFA"/>
</svg>
