<svg width="24" height="25" viewBox="0 0 24 25" fill="none" xmlns="http://www.w3.org/2000/svg">
<path d="M20.6198 9.2C19.5798 4.57 15.5398 2.5 11.9998 2.5C11.9998 2.5 11.9998 2.5 11.9897 2.5C8.45975 2.5 4.42975 4.57 3.37975 9.19C2.19975 14.35 5.35975 18.72 8.21975 21.48C9.27975 22.5 10.6398 23.01 11.9998 23.01C13.3597 23.01 14.7198 22.5 15.7698 21.48C18.6298 18.72 21.7898 14.36 20.6198 9.2ZM15.2797 10.03L11.2797 14.03C11.1298 14.18 10.9398 14.25 10.7498 14.25C10.5598 14.25 10.3698 14.18 10.2198 14.03L8.71975 12.53C8.42975 12.24 8.42975 11.76 8.71975 11.47C9.00975 11.18 9.48975 11.18 9.77975 11.47L10.7498 12.44L14.2198 8.97C14.5098 8.68 14.9897 8.68 15.2797 8.97C15.5697 9.26 15.5697 9.74 15.2797 10.03Z" fill="#1235AA"/>
</svg>
