<svg width="51" height="53" viewBox="0 0 51 53" fill="none" xmlns="http://www.w3.org/2000/svg">
<path fill-rule="evenodd" clip-rule="evenodd" d="M1 51C1 37.0842 10.6731 26.0654 23.839 26.0654H37.1695V26.5794C37.1695 33.9416 31.2012 39.9098 23.839 39.9098C17.9071 39.9098 12 44.7303 12 51H1Z" fill="#6586F5"/>
<path fill-rule="evenodd" clip-rule="evenodd" d="M0.5 49C0.5 30.8327 14.594 16 32.5967 16L34.8654 16L32.5967 25.7222H37.1984C37.1984 25.7222 37.2546 26.7885 37.1984 27.4679C37.1432 28.1346 36.9195 29.1579 36.9195 29.1579H32.5967C21.7951 29.1579 13.0387 37.9944 13.0387 48.8947L12.1932 51H1L0.5 49Z" fill="#194BF0"/>
<path fill-rule="evenodd" clip-rule="evenodd" d="M0 47.0225C0 28.7302 14.93 13.9014 33.3472 13.9014L41.4915 13.9014V19.0055C41.4915 23.5035 37.8452 27.1498 33.3472 27.1498C22.2969 27.1498 13.3389 36.0471 13.3389 47.0225L12 51.262L1 50.9998L0 47.0225Z" fill="#FDB713"/>
<path fill-rule="evenodd" clip-rule="evenodd" d="M0 35.3817C0 16.8004 14.93 1.7373 33.3472 1.7373H35.6682L33.4844 12.3083H41.4915V15.1951H33.3472C22.2969 15.1951 13.3389 24.2329 13.3389 35.3817L12 51.2619H1.29661L0 35.3817Z" fill="#FF9900"/>
<path fill-rule="evenodd" clip-rule="evenodd" d="M0 33.8315C0 15.1469 14.9434 0 33.377 0H51C51 7.47386 44.9412 13.5326 37.4674 13.5326H33.377C22.3168 13.5326 13.3508 22.6207 13.3508 33.8315V48.1695C13.3508 50.8373 11.1881 53 8.52027 53H4.83051C2.16269 53 0 50.8373 0 48.1695L0 33.8315Z" fill="#194BF0"/>
</svg>
