<svg width="24" height="24" viewBox="0 0 24 24" fill="none" xmlns="http://www.w3.org/2000/svg">
<path d="M22 22.75H5C2.93 22.75 1.25 21.07 1.25 19V2C1.25 1.59 1.59 1.25 2 1.25C2.41 1.25 2.75 1.59 2.75 2V19C2.75 20.24 3.76 21.25 5 21.25H22C22.41 21.25 22.75 21.59 22.75 22C22.75 22.41 22.41 22.75 22 22.75Z" fill="#565656"/>
<path d="M5.00007 17.75C4.83007 17.75 4.65007 17.69 4.51007 17.57C4.20007 17.3 4.16007 16.83 4.43007 16.51L9.02007 11.15C9.52007 10.57 10.2401 10.22 11.0001 10.19C11.7601 10.17 12.5101 10.45 13.0501 10.99L14.0001 11.94C14.2501 12.19 14.5701 12.31 14.9301 12.31C15.2801 12.3 15.6001 12.14 15.8301 11.87L20.4201 6.51001C20.6901 6.20001 21.1601 6.16001 21.4801 6.43001C21.7901 6.70001 21.8301 7.17001 21.5601 7.49001L16.9701 12.85C16.4701 13.43 15.7501 13.78 14.9901 13.81C14.2201 13.83 13.4801 13.55 12.9401 13.01L12.0001 12.06C11.7501 11.81 11.4201 11.68 11.0701 11.69C10.7201 11.7 10.4001 11.86 10.1701 12.13L5.58007 17.49C5.42007 17.66 5.21007 17.75 5.00007 17.75Z" fill="#565656"/>
</svg>
