<svg width="40" height="40" viewBox="0 0 40 40" fill="none" xmlns="http://www.w3.org/2000/svg">
<path d="M13.0167 3.33331H26.9833C33.05 3.33331 36.6667 6.94998 36.6667 13.0166V26.9666C36.6667 33.05 33.05 36.6666 26.9833 36.6666H13.0333C6.96666 36.6666 3.34999 33.05 3.34999 26.9833V13.0166C3.33332 6.94998 6.94999 3.33331 13.0167 3.33331ZM17.0167 25C16.5333 25.4833 16.5333 26.2833 17.0167 26.7666C17.2667 27.0166 17.5833 27.1333 17.9 27.1333C18.2167 27.1333 18.5333 27.0166 18.7833 26.7666L24.6667 20.8833C25.15 20.4 25.15 19.6 24.6667 19.1166L18.7833 13.2333C18.3 12.75 17.5 12.75 17.0167 13.2333C16.5333 13.7166 16.5333 14.5166 17.0167 15L22.0167 20L17.0167 25Z" fill="#0E2984"/>
</svg>
