<svg width="40" height="40" viewBox="0 0 40 40" fill="none" xmlns="http://www.w3.org/2000/svg">
<path d="M26.9833 3.33331H13.0167C6.95001 3.33331 3.33334 6.94998 3.33334 13.0166V26.9666C3.33334 33.05 6.95001 36.6666 13.0167 36.6666H26.9667C33.0333 36.6666 36.65 33.05 36.65 26.9833V13.0166C36.6667 6.94998 33.05 3.33331 26.9833 3.33331ZM22.9833 25C23.4667 25.4833 23.4667 26.2833 22.9833 26.7666C22.7333 27.0166 22.4167 27.1333 22.1 27.1333C21.7833 27.1333 21.4667 27.0166 21.2167 26.7666L15.3333 20.8833C14.85 20.4 14.85 19.6 15.3333 19.1166L21.2167 13.2333C21.7 12.75 22.5 12.75 22.9833 13.2333C23.4667 13.7166 23.4667 14.5166 22.9833 15L17.9833 20L22.9833 25Z" fill="#0E2984"/>
</svg>
