<svg width="1440" height="58" viewBox="0 0 1440 58" fill="none" xmlns="http://www.w3.org/2000/svg">
<path d="M111.167 28.9999C111.167 27.5272 109.973 26.3332 108.5 26.3332C107.027 26.3332 105.833 27.5272 105.833 28.9999C105.833 30.4727 107.027 31.6666 108.5 31.6666C109.973 31.6666 111.167 30.4727 111.167 28.9999ZM1118.5 28.5L108.5 28.4999L108.5 29.4999L1118.5 29.5L1118.5 28.5Z" fill="#0E2984"/>
<path d="M1142.64 32.5508C1141.71 33.6602 1140.63 34.7109 1139.39 35.7031C1140.01 35.8672 1140.62 35.9492 1141.22 35.9492C1142.73 35.9492 1143.48 35.6445 1143.48 35.0352C1143.48 34.8008 1143.41 34.457 1143.26 34.0039C1143.11 33.5508 1142.91 33.0664 1142.64 32.5508ZM1136.65 34.8359C1138.58 33.4609 1140.14 31.9844 1141.34 30.4062C1140.57 29.2969 1139.71 28.25 1138.75 27.2656C1137.8 26.2734 1136.86 25.4453 1135.93 24.7812L1137.27 22.8477C1139.21 24.207 1141.02 26.0117 1142.69 28.2617C1143.51 26.6445 1143.92 24.8672 1143.92 22.9297H1146.26C1146.26 25.6328 1145.55 28.1367 1144.14 30.4414C1145.27 32.3398 1145.83 33.8711 1145.83 35.0352C1145.83 35.5742 1145.71 36.0508 1145.49 36.4648C1145.27 36.8711 1145 37.1875 1144.67 37.4141C1144.35 37.6406 1143.96 37.8242 1143.52 37.9648C1143.07 38.1055 1142.67 38.1953 1142.31 38.2344C1141.96 38.2734 1141.6 38.293 1141.22 38.293C1139.58 38.293 1138.06 37.8555 1136.65 36.9805V34.8359ZM1151.54 22.9297V33.418C1151.54 34.3633 1151.67 35 1151.95 35.3281C1152.29 35.7422 1153.11 35.9492 1154.42 35.9492V38.293C1152.54 38.293 1151.15 37.7969 1150.26 36.8047C1149.55 35.9922 1149.19 34.8633 1149.19 33.418V22.9297H1151.54ZM1154.42 35.9492H1155.5C1157.14 35.9492 1158.24 35.8555 1158.79 35.668C1159.34 35.4727 1159.62 35.0859 1159.62 34.5078C1159.62 33.8594 1159.12 32.8906 1158.12 31.6016C1157.13 30.3125 1156.03 29.2148 1154.83 28.3086L1154.36 27.957V25.7188L1154.9 25.3789C1157.71 23.582 1160.79 22.3438 1164.13 21.6641L1164.6 23.9609C1161.82 24.5391 1159.24 25.5273 1156.86 26.9258C1157.5 27.457 1158.11 28.0078 1158.67 28.5781C1159.24 29.1484 1159.78 29.7656 1160.29 30.4297C1160.8 31.0938 1161.21 31.7812 1161.51 32.4922C1161.81 33.1953 1161.96 33.8672 1161.96 34.5078C1161.96 34.9062 1161.92 35.2734 1161.82 35.6094C1161.73 35.9375 1161.61 36.2266 1161.46 36.4766C1161.31 36.7188 1161.11 36.9375 1160.86 37.1328C1160.62 37.3203 1160.38 37.4766 1160.15 37.6016C1159.91 37.7266 1159.62 37.8359 1159.28 37.9297C1158.94 38.0156 1158.63 38.082 1158.36 38.1289C1158.09 38.1758 1157.77 38.2109 1157.38 38.2344C1157 38.2656 1156.68 38.2812 1156.42 38.2812C1156.17 38.2891 1155.86 38.293 1155.5 38.293H1154.42C1154.1 38.293 1153.82 38.1797 1153.6 37.9531C1153.36 37.7188 1153.25 37.4414 1153.25 37.1211C1153.25 36.8008 1153.36 36.5273 1153.6 36.3008C1153.82 36.0664 1154.1 35.9492 1154.42 35.9492ZM1178.64 39.8984L1180.42 38.1172L1182.2 39.8984L1180.42 41.6797L1178.64 39.8984ZM1187.51 45.6992C1185.32 46.5117 1183.21 46.918 1181.2 46.918C1180.63 46.918 1180.07 46.8828 1179.51 46.8125C1178.95 46.7422 1178.39 46.6289 1177.82 46.4727C1177.26 46.3242 1176.72 46.1328 1176.21 45.8984C1175.71 45.6719 1175.25 45.3867 1174.81 45.043C1174.37 44.707 1173.99 44.3281 1173.67 43.9062C1173.36 43.4922 1173.11 43.0039 1172.92 42.4414C1172.74 41.8867 1172.65 41.2891 1172.65 40.6484C1172.65 39.9375 1172.77 39.2617 1172.99 38.6211C1173.22 37.9883 1173.52 37.4258 1173.88 36.9336C1174.26 36.4336 1174.73 35.957 1175.31 35.5039C1175.89 35.043 1176.47 34.6484 1177.06 34.3203C1177.64 33.9844 1178.33 33.6523 1179.11 33.3242C1179.89 32.9961 1180.61 32.7227 1181.27 32.5039C1181.93 32.2773 1182.68 32.0391 1183.5 31.7891L1178.76 30.2422C1178.38 30.1172 1178.02 30.0547 1177.7 30.0547C1177.06 30.0547 1176.58 30.2969 1176.25 30.7812C1175.92 31.2578 1175.7 32.0547 1175.57 33.1719L1173.24 32.9141C1173.32 32.1953 1173.45 31.5391 1173.65 30.9453C1173.85 30.3438 1174.12 29.7969 1174.47 29.3047C1174.81 28.8047 1175.26 28.4141 1175.8 28.1328C1176.36 27.8516 1176.99 27.7109 1177.7 27.7109C1178.35 27.7109 1178.96 27.8125 1179.52 28.0156L1186.96 30.6992L1186.94 33.1367C1186.09 33.3477 1185.25 33.5703 1184.44 33.8047C1184.78 34.2891 1185.09 34.6719 1185.37 34.9531C1185.65 35.2344 1186.02 35.4727 1186.49 35.668C1186.97 35.8555 1187.52 35.9492 1188.14 35.9492V38.293C1185.61 38.293 1183.6 37.043 1182.1 34.543C1179.82 35.332 1178.07 36.2227 1176.84 37.2148C1175.61 38.1992 1175 39.3438 1175 40.6484C1175 41.4609 1175.26 42.1641 1175.79 42.7578C1176.33 43.3594 1177.07 43.8125 1178 44.1172C1178.93 44.4219 1179.99 44.5742 1181.2 44.5742C1182.99 44.5742 1184.83 44.2188 1186.7 43.5078L1187.51 45.6992ZM1188.14 35.9492H1191.89V38.293H1188.14C1187.82 38.293 1187.55 38.1797 1187.32 37.9531C1187.09 37.7188 1186.97 37.4414 1186.97 37.1211C1186.97 36.8008 1187.09 36.5273 1187.32 36.3008C1187.55 36.0664 1187.82 35.9492 1188.14 35.9492ZM1192.38 42.5117L1194.16 40.7305L1195.94 42.5117L1194.16 44.293L1192.38 42.5117ZM1188.5 42.5117L1190.28 40.7305L1192.06 42.5117L1190.28 44.293L1188.5 42.5117ZM1191.91 35.9492C1193.1 35.9492 1193.94 35.7109 1194.41 35.2344C1194.96 34.6875 1195.23 33.5898 1195.23 31.9414V31.0391H1197.58V31.9414C1197.58 33.5352 1197.84 34.6172 1198.35 35.1875C1198.82 35.6953 1199.67 35.9492 1200.89 35.9492V38.293C1198.92 38.293 1197.42 37.6992 1196.41 36.5117C1195.44 37.6992 1193.94 38.293 1191.91 38.293C1191.59 38.293 1191.31 38.1797 1191.09 37.9531C1190.85 37.7188 1190.73 37.4414 1190.73 37.1211C1190.73 36.8008 1190.85 36.5273 1191.09 36.3008C1191.31 36.0664 1191.59 35.9492 1191.91 35.9492ZM1200.89 35.9492C1201.99 35.9492 1202.74 35.7148 1203.16 35.2461C1203.57 34.7305 1203.78 33.7969 1203.78 32.4453V22.9531H1206.12V32.4453C1206.12 33.7969 1206.33 34.7305 1206.74 35.2461C1207.14 35.7148 1207.89 35.9492 1209 35.9492V38.293C1207.17 38.293 1205.82 37.7812 1204.95 36.7578C1204.07 37.7812 1202.72 38.293 1200.89 38.293C1200.57 38.293 1200.3 38.1797 1200.07 37.9531C1199.84 37.7188 1199.72 37.4414 1199.72 37.1211C1199.72 36.8008 1199.84 36.5273 1200.07 36.3008C1200.3 36.0664 1200.57 35.9492 1200.89 35.9492ZM1212.54 23.6328L1214.32 21.8516L1216.11 23.6328L1214.32 25.4141L1212.54 23.6328ZM1209.89 32.7617C1209.97 32.2773 1210.07 31.8281 1210.19 31.4141C1210.3 30.9922 1210.47 30.5469 1210.69 30.0781C1210.92 29.6016 1211.18 29.1992 1211.46 28.8711C1211.76 28.543 1212.14 28.2695 1212.59 28.0508C1213.04 27.832 1213.55 27.7227 1214.11 27.7227C1214.85 27.7227 1215.65 27.9258 1216.53 28.332L1223.73 31.8125V34.0859C1222.09 34.4219 1220.67 34.9492 1219.46 35.668C1218.61 36.1758 1217.75 36.6055 1216.9 36.957C1216.06 37.3086 1214.94 37.6211 1213.54 37.8945C1212.15 38.1602 1210.64 38.293 1209 38.293C1208.68 38.293 1208.41 38.1797 1208.18 37.9531C1207.95 37.7188 1207.83 37.4414 1207.83 37.1211C1207.83 36.8008 1207.95 36.5273 1208.18 36.3008C1208.41 36.0664 1208.68 35.9492 1209 35.9492C1210.54 35.9492 1211.9 35.8398 1213.09 35.6211C1214.29 35.4023 1215.24 35.1445 1215.95 34.8477C1216.66 34.5508 1217.43 34.1562 1218.24 33.6641C1218.88 33.2734 1219.52 32.9453 1220.15 32.6797L1215.5 30.4414C1215 30.1914 1214.54 30.0664 1214.11 30.0664C1213.18 30.0664 1212.54 31.0898 1212.21 33.1367L1209.89 32.7617Z" fill="#363636"/>
<path d="M1248.58 29.3281L1247.71 31.5078L1247.09 31.2617C1246.42 30.9961 1245.79 30.8633 1245.21 30.8633C1244.29 30.8633 1243.54 31.1211 1242.98 31.6367C1242.41 32.1523 1242.13 32.7617 1242.13 33.4648C1242.13 33.7461 1242.17 33.9883 1242.25 34.1914C1242.33 34.3867 1242.43 34.5508 1242.55 34.6836C1242.69 34.8086 1242.88 34.9141 1243.12 35C1243.36 35.0859 1243.61 35.1562 1243.86 35.2109C1244.11 35.2578 1244.45 35.3047 1244.85 35.3516C1245.23 35.3984 1245.58 35.457 1245.89 35.5273C1246.21 35.5977 1246.56 35.7188 1246.96 35.8906C1247.36 36.0625 1247.69 36.2734 1247.96 36.5234C1248.23 36.7734 1248.46 37.1133 1248.65 37.543C1248.84 37.9648 1248.94 38.4531 1248.94 39.0078C1248.94 39.6875 1248.8 40.3164 1248.52 40.8945C1248.25 41.4805 1247.88 41.9688 1247.42 42.3594C1246.96 42.7578 1246.44 43.0977 1245.84 43.3789C1245.24 43.6602 1244.62 43.8633 1243.98 43.9883C1243.34 44.1211 1242.7 44.1875 1242.06 44.1875C1241.18 44.1875 1240.34 44.1055 1239.53 43.9414C1238.73 43.7773 1237.98 43.5234 1237.29 43.1797C1236.61 42.8438 1236.01 42.4336 1235.5 41.9492C1235 41.4727 1234.61 40.8984 1234.32 40.2266C1234.04 39.5625 1233.89 38.8398 1233.89 38.0586C1233.89 36.4102 1234.18 34.6953 1234.76 32.9141L1234.89 32.5039L1237.12 33.207L1236.99 33.6172C1236.49 35.1875 1236.24 36.668 1236.24 38.0586C1236.24 39.168 1236.74 40.0742 1237.75 40.7773C1238.76 41.4883 1240.2 41.8438 1242.06 41.8438C1243.38 41.8438 1244.47 41.5625 1245.32 41C1246.17 40.4375 1246.6 39.7734 1246.6 39.0078C1246.6 38.5234 1246.48 38.207 1246.23 38.0586C1245.99 37.9102 1245.44 37.7812 1244.57 37.6719C1244.28 37.6328 1244.02 37.5938 1243.79 37.5547C1243.55 37.5156 1243.26 37.4492 1242.92 37.3555C1242.57 37.2539 1242.27 37.1406 1241.99 37.0156C1241.73 36.8906 1241.45 36.7188 1241.16 36.5C1240.87 36.2812 1240.63 36.0391 1240.45 35.7734C1240.26 35.5 1240.1 35.168 1239.98 34.7773C1239.85 34.3789 1239.79 33.9414 1239.79 33.4648C1239.79 32.0664 1240.31 30.8945 1241.36 29.9492C1242.41 28.9961 1243.7 28.5195 1245.21 28.5195C1246.08 28.5195 1247 28.707 1247.96 29.082L1248.58 29.3281ZM1254.07 22.9297V33.418C1254.07 34.3633 1254.21 35 1254.48 35.3281C1254.83 35.7422 1255.65 35.9492 1256.96 35.9492V38.293C1255.07 38.293 1253.69 37.7969 1252.8 36.8047C1252.09 35.9922 1251.73 34.8633 1251.73 33.418V22.9297H1254.07ZM1256.96 35.9492C1257.89 35.9492 1258.76 35.8906 1259.56 35.7734C1258.58 34.8672 1258.09 33.8086 1258.09 32.5977C1258.09 31.707 1258.32 30.918 1258.76 30.2305C1259.21 29.543 1259.79 29.0039 1260.47 28.6133C1259.98 28.207 1259.49 27.7422 1259.01 27.2188L1260.74 25.6484C1261.23 26.1953 1261.83 26.7227 1262.54 27.2305C1263.25 27.7383 1264.02 28.1406 1264.84 28.4375C1265.3 28.6016 1265.69 28.75 1266.03 28.8828C1266.37 29.0156 1266.77 29.1953 1267.23 29.4219C1267.7 29.6406 1268.11 29.8594 1268.45 30.0781C1268.8 30.2969 1269.15 30.5625 1269.51 30.875C1269.88 31.1875 1270.17 31.5117 1270.4 31.8477C1270.63 32.1758 1270.82 32.5586 1270.97 32.9961C1271.12 33.4336 1271.2 33.8906 1271.2 34.3672C1271.2 35.4766 1270.82 36.4102 1270.06 37.168C1269.3 37.918 1268.27 38.293 1266.96 38.293C1266.39 38.293 1265.67 38.2148 1264.8 38.0586C1263.92 37.9023 1263.16 37.7031 1262.5 37.4609C1260.98 38.0156 1259.14 38.293 1256.96 38.293C1256.64 38.293 1256.36 38.1797 1256.14 37.9531C1255.9 37.7188 1255.79 37.4414 1255.79 37.1211C1255.79 36.8008 1255.9 36.5273 1256.14 36.3008C1256.36 36.0664 1256.64 35.9492 1256.96 35.9492ZM1265.12 35.6914C1266.06 35.8633 1266.68 35.9492 1266.96 35.9492C1267.61 35.9492 1268.08 35.8086 1268.38 35.5273C1268.7 35.2461 1268.85 34.8594 1268.85 34.3672C1268.85 33.375 1268.02 32.4492 1266.37 31.5898C1266.37 32.5273 1266.27 33.3203 1266.09 33.9688C1265.91 34.6172 1265.59 35.1914 1265.12 35.6914ZM1262.51 34.9297C1262.94 34.7891 1263.34 34.3906 1263.7 33.7344C1264.05 33.0781 1264.23 32.4414 1264.23 31.8242C1264.23 31.3711 1264.12 31.0078 1263.88 30.7344C1263.66 30.4531 1263.3 30.3125 1262.8 30.3125C1262.25 30.3125 1261.71 30.5273 1261.2 30.957C1260.69 31.3867 1260.44 31.9336 1260.44 32.5977C1260.44 33.0352 1260.63 33.4648 1261.01 33.8867C1261.4 34.3008 1261.9 34.6484 1262.51 34.9297ZM1298.5 18.1133L1298.85 19.8242C1295.75 20.4648 1292.91 21.6094 1290.32 23.2578L1289.37 21.7812C1292.11 20.0312 1295.15 18.8086 1298.5 18.1133ZM1281.75 29.6797L1283.98 30.4062C1283.57 31.6797 1283.36 32.6484 1283.36 33.3125C1283.36 34.2734 1283.91 34.9531 1285.02 35.3516C1286.13 35.75 1287.97 35.9492 1290.53 35.9492C1292.21 35.9492 1293.41 35.8359 1294.14 35.6094C1294.88 35.3828 1295.24 35.0156 1295.24 34.5078C1295.24 33.8594 1294.74 32.8906 1293.74 31.6016C1292.75 30.3125 1291.65 29.2148 1290.45 28.3086L1289.98 27.957V25.7188L1290.52 25.3789C1293.33 23.582 1296.41 22.3438 1299.75 21.6641L1300.22 23.9609C1297.45 24.5391 1294.87 25.5273 1292.48 26.9258C1293.12 27.457 1293.73 28.0078 1294.29 28.5781C1294.86 29.1406 1295.39 29.7539 1295.91 30.418C1296.43 31.082 1296.83 31.7695 1297.13 32.4805C1297.43 33.1914 1297.59 33.8672 1297.59 34.5078C1297.59 35.0312 1297.5 35.5 1297.32 35.9141C1297.14 36.3203 1296.92 36.6562 1296.66 36.9219C1296.41 37.1797 1296.06 37.4023 1295.62 37.5898C1295.18 37.7695 1294.79 37.9062 1294.43 38C1294.09 38.0859 1293.64 38.1523 1293.07 38.1992C1292.52 38.2461 1292.09 38.2734 1291.8 38.2812C1291.5 38.2891 1291.09 38.293 1290.58 38.293C1290.55 38.293 1290.54 38.293 1290.53 38.293C1289.8 38.293 1289.16 38.2812 1288.59 38.2578C1288.02 38.2344 1287.39 38.1797 1286.7 38.0938C1286.01 38.0156 1285.41 37.9062 1284.89 37.7656C1284.38 37.625 1283.87 37.4297 1283.36 37.1797C1282.85 36.9297 1282.43 36.6367 1282.11 36.3008C1281.79 35.957 1281.52 35.5312 1281.32 35.0234C1281.12 34.5156 1281.02 33.9453 1281.02 33.3125C1281.02 32.3672 1281.26 31.1562 1281.75 29.6797ZM1307.59 33.7227H1305.25C1305.25 30.0195 1304.57 26.5781 1303.2 23.3984L1305.36 22.4609C1306.85 25.9062 1307.59 29.6602 1307.59 33.7227ZM1317.82 38.293C1316.71 38.293 1315.73 38.1055 1314.88 37.7305C1314.05 37.3555 1313.41 36.7852 1312.98 36.0195C1312.11 36.8555 1310.85 37.4453 1309.21 37.7891C1307.57 38.125 1305.47 38.293 1302.92 38.293V35.9492C1304.21 35.9492 1305.32 35.9219 1306.26 35.8672C1307.2 35.8047 1308.02 35.7031 1308.71 35.5625C1309.4 35.4219 1309.97 35.2539 1310.41 35.0586C1310.84 34.8555 1311.19 34.5977 1311.45 34.2852C1311.71 33.9727 1311.9 33.6328 1312 33.2656C1312.1 32.8984 1312.15 32.4609 1312.15 31.9531V22.9531H1314.5V31.9414C1314.5 33.4727 1314.73 34.5273 1315.19 35.1055C1315.64 35.668 1316.52 35.9492 1317.82 35.9492V38.293ZM1317.59 42.5117L1319.37 40.7305L1321.15 42.5117L1319.37 44.293L1317.59 42.5117ZM1317.82 35.9492C1318.46 35.9492 1319 35.875 1319.46 35.7266C1319.93 35.5781 1320.23 35.418 1320.38 35.2461C1320.78 34.7695 1320.98 33.957 1320.98 32.8086C1320.98 31.7852 1320.74 30.5469 1320.26 29.0938L1322.49 28.3672C1323.04 30.0312 1323.32 31.5117 1323.32 32.8086C1323.32 34.5273 1322.94 35.8398 1322.18 36.7461C1321.32 37.7773 1319.86 38.293 1317.82 38.293C1317.5 38.293 1317.23 38.1797 1317 37.9531C1316.77 37.7188 1316.65 37.4414 1316.65 37.1211C1316.65 36.8008 1316.77 36.5273 1317 36.3008C1317.23 36.0664 1317.5 35.9492 1317.82 35.9492Z" fill="#DE3800"/>
</svg>
