<svg width="1440" height="58" viewBox="0 0 1440 58" fill="none" xmlns="http://www.w3.org/2000/svg">
<path d="M111.167 29C111.167 27.5272 109.973 26.3333 108.5 26.3333C107.027 26.3333 105.833 27.5272 105.833 29C105.833 30.4728 107.027 31.6667 108.5 31.6667C109.973 31.6667 111.167 30.4728 111.167 29ZM1155.5 28.5L108.5 28.5V29.5L1155.5 29.5V28.5Z" fill="#0E2984"/>
<path d="M1180.31 42.5117L1182.09 40.7305L1183.87 42.5117L1182.09 44.293L1180.31 42.5117ZM1173.59 29.5977L1175.77 30.4883C1175.59 30.918 1175.45 31.3906 1175.33 31.9062C1175.22 32.4219 1175.16 32.8398 1175.16 33.1602C1175.16 34.0898 1175.61 34.7852 1176.49 35.2461C1177.38 35.6992 1178.85 35.9258 1180.91 35.9258C1183.73 35.9258 1185.95 35.6055 1187.54 34.9648C1189.14 34.3164 1190.11 33.2969 1190.45 31.9062L1190.74 30.7461L1193.01 31.3203L1192.73 32.4688C1192.54 33.2734 1192.44 33.9062 1192.44 34.3672C1192.44 34.5312 1192.44 34.6562 1192.44 34.7422C1192.45 34.8281 1192.46 34.9375 1192.5 35.0703C1192.54 35.2031 1192.59 35.3047 1192.65 35.375C1192.71 35.4453 1192.8 35.5234 1192.93 35.6094C1193.05 35.6953 1193.21 35.7578 1193.39 35.7969C1193.57 35.8359 1193.8 35.8711 1194.08 35.9023C1194.36 35.9336 1194.68 35.9492 1195.04 35.9492V38.293C1192.59 38.293 1191.05 37.5352 1190.4 36.0195C1189.32 36.8477 1187.99 37.4297 1186.4 37.7656C1184.82 38.1016 1182.98 38.2695 1180.91 38.2695C1180.02 38.2695 1179.21 38.2227 1178.46 38.1289C1177.71 38.0352 1176.98 37.8672 1176.27 37.625C1175.56 37.3828 1174.96 37.0742 1174.46 36.6992C1173.97 36.3242 1173.57 35.8359 1173.27 35.2344C1172.97 34.6328 1172.82 33.9414 1172.82 33.1602C1172.82 32.0586 1173.08 30.8711 1173.59 29.5977ZM1198.59 23.6328L1200.37 21.8516L1202.15 23.6328L1200.37 25.4141L1198.59 23.6328ZM1207.93 34.5547C1208.16 34.7969 1208.36 34.9883 1208.5 35.1289C1208.66 35.2617 1208.86 35.4023 1209.1 35.5508C1209.35 35.6914 1209.63 35.793 1209.95 35.8555C1210.27 35.918 1210.64 35.9492 1211.06 35.9492V38.293C1208.88 38.293 1207.09 37.3828 1205.69 35.5625C1205.02 35.9766 1204.37 36.332 1203.73 36.6289C1203.11 36.918 1202.37 37.1992 1201.51 37.4727C1200.66 37.7383 1199.69 37.9414 1198.6 38.082C1197.52 38.2227 1196.34 38.293 1195.05 38.293C1194.73 38.293 1194.46 38.1797 1194.23 37.9531C1194 37.7188 1193.88 37.4414 1193.88 37.1211C1193.88 36.8008 1194 36.5273 1194.23 36.3008C1194.46 36.0664 1194.73 35.9492 1195.05 35.9492C1196.58 35.9492 1197.95 35.8398 1199.14 35.6211C1200.34 35.4023 1201.29 35.1445 1202 34.8477C1202.71 34.5508 1203.47 34.1562 1204.29 33.6641C1204.96 33.2656 1205.59 32.9414 1206.2 32.6914L1201.54 30.4414C1201.04 30.1914 1200.58 30.0664 1200.16 30.0664C1199.22 30.0664 1198.59 31.0898 1198.26 33.1367L1195.94 32.7617C1196.02 32.2773 1196.12 31.8281 1196.23 31.4141C1196.35 30.9922 1196.52 30.5469 1196.74 30.0781C1196.96 29.6016 1197.22 29.1992 1197.51 28.8711C1197.81 28.543 1198.18 28.2695 1198.64 28.0508C1199.09 27.832 1199.6 27.7227 1200.16 27.7227C1200.89 27.7227 1201.7 27.9258 1202.57 28.332L1209.78 31.8125V34.0859C1208.97 34.2656 1208.35 34.4219 1207.93 34.5547ZM1214.09 26.1172L1215.88 24.3359L1217.66 26.1172L1215.88 27.8984L1214.09 26.1172ZM1210.21 26.1172L1212 24.3359L1213.78 26.1172L1212 27.8984L1210.21 26.1172ZM1211.06 35.9492C1212.25 35.9492 1213.09 35.7109 1213.57 35.2344C1214.11 34.6875 1214.39 33.5898 1214.39 31.9414V31.0391H1216.73V31.9414C1216.73 33.5352 1216.99 34.6172 1217.5 35.1875C1217.97 35.6953 1218.82 35.9492 1220.05 35.9492V38.293C1218.07 38.293 1216.57 37.6992 1215.56 36.5117C1214.59 37.6992 1213.09 38.293 1211.06 38.293C1210.74 38.293 1210.46 38.1797 1210.24 37.9531C1210 37.7188 1209.89 37.4414 1209.89 37.1211C1209.89 36.8008 1210 36.5273 1210.24 36.3008C1210.46 36.0664 1210.74 35.9492 1211.06 35.9492ZM1221.16 26.1172L1222.94 24.3359L1224.72 26.1172L1222.94 27.8984L1221.16 26.1172ZM1220.06 35.9492C1221.25 35.9492 1222.09 35.7109 1222.57 35.2344C1223.11 34.6875 1223.39 33.5898 1223.39 31.9414V31.0391H1225.73V31.9414C1225.73 33.5352 1225.99 34.6172 1226.5 35.1875C1226.97 35.6953 1227.82 35.9492 1229.05 35.9492V38.293C1227.07 38.293 1225.57 37.6992 1224.56 36.5117C1223.59 37.6992 1222.09 38.293 1220.06 38.293C1219.74 38.293 1219.46 38.1797 1219.24 37.9531C1219 37.7188 1218.89 37.4414 1218.89 37.1211C1218.89 36.8008 1219 36.5273 1219.24 36.3008C1219.46 36.0664 1219.74 35.9492 1220.06 35.9492ZM1229.06 35.9492C1229.61 35.9492 1230.03 35.8477 1230.3 35.6445C1230.57 35.4414 1230.86 35.043 1231.14 34.4492C1231.35 34.0273 1231.54 33.5586 1231.73 33.043C1231.91 32.543 1232.13 32.082 1232.39 31.6602C1232.64 31.2383 1232.95 30.8477 1233.3 30.4883C1233.66 30.1211 1234.08 29.8359 1234.57 29.6328C1235.06 29.4219 1235.59 29.3164 1236.15 29.3164C1236.68 29.3164 1237.18 29.418 1237.65 29.6211C1238.12 29.8242 1238.52 30.0938 1238.84 30.4297C1239.17 30.7578 1239.45 31.1367 1239.69 31.5664C1239.93 31.9883 1240.11 32.4297 1240.23 32.8906C1240.34 33.3438 1240.4 33.7891 1240.4 34.2266C1240.4 35.3203 1240.04 36.2734 1239.31 37.0859C1238.59 37.8906 1237.7 38.293 1236.65 38.293C1235.95 38.293 1235.25 38.1289 1234.54 37.8008C1233.85 37.4727 1233.21 37.0508 1232.63 36.5352C1231.77 37.707 1230.58 38.293 1229.06 38.293C1228.74 38.293 1228.46 38.1797 1228.24 37.9531C1228 37.7188 1227.89 37.4414 1227.89 37.1211C1227.89 36.8008 1228 36.5273 1228.24 36.3008C1228.46 36.0664 1228.74 35.9492 1229.06 35.9492ZM1233.75 34.3203C1234.08 34.7344 1234.55 35.1094 1235.15 35.4453C1235.75 35.7812 1236.25 35.9492 1236.65 35.9492C1236.98 35.9492 1237.3 35.7852 1237.6 35.457C1237.91 35.1289 1238.06 34.7188 1238.06 34.2266C1238.06 33.5469 1237.86 32.9492 1237.45 32.4336C1237.05 31.918 1236.62 31.6602 1236.15 31.6602C1235.21 31.6602 1234.47 32.3906 1233.93 33.8516L1233.75 34.3203Z" fill="#363636"/>
<path d="M1264.88 29.3281L1264.02 31.5078L1263.39 31.2617C1262.72 30.9961 1262.1 30.8633 1261.52 30.8633C1260.59 30.8633 1259.84 31.1211 1259.28 31.6367C1258.72 32.1523 1258.44 32.7617 1258.44 33.4648C1258.44 33.7461 1258.48 33.9883 1258.55 34.1914C1258.63 34.3867 1258.73 34.5508 1258.86 34.6836C1258.99 34.8086 1259.18 34.9141 1259.42 35C1259.66 35.0859 1259.91 35.1562 1260.16 35.2109C1260.42 35.2578 1260.75 35.3047 1261.16 35.3516C1261.54 35.3984 1261.89 35.457 1262.2 35.5273C1262.51 35.5977 1262.87 35.7188 1263.27 35.8906C1263.66 36.0625 1264 36.2734 1264.26 36.5234C1264.54 36.7734 1264.77 37.1133 1264.95 37.543C1265.15 37.9648 1265.25 38.4531 1265.25 39.0078C1265.25 39.6875 1265.11 40.3164 1264.82 40.8945C1264.55 41.4805 1264.18 41.9688 1263.72 42.3594C1263.27 42.7578 1262.74 43.0977 1262.14 43.3789C1261.55 43.6602 1260.93 43.8633 1260.29 43.9883C1259.65 44.1211 1259.01 44.1875 1258.37 44.1875C1257.48 44.1875 1256.64 44.1055 1255.84 43.9414C1255.03 43.7773 1254.29 43.5234 1253.6 43.1797C1252.91 42.8438 1252.31 42.4336 1251.8 41.9492C1251.3 41.4727 1250.91 40.8984 1250.62 40.2266C1250.34 39.5625 1250.2 38.8398 1250.2 38.0586C1250.2 36.4102 1250.49 34.6953 1251.07 32.9141L1251.2 32.5039L1253.42 33.207L1253.29 33.6172C1252.79 35.1875 1252.54 36.668 1252.54 38.0586C1252.54 39.168 1253.05 40.0742 1254.05 40.7773C1255.06 41.4883 1256.5 41.8438 1258.37 41.8438C1259.69 41.8438 1260.77 41.5625 1261.62 41C1262.48 40.4375 1262.9 39.7734 1262.9 39.0078C1262.9 38.5234 1262.78 38.207 1262.54 38.0586C1262.3 37.9102 1261.74 37.7812 1260.88 37.6719C1260.59 37.6328 1260.32 37.5938 1260.09 37.5547C1259.86 37.5156 1259.57 37.4492 1259.22 37.3555C1258.88 37.2539 1258.57 37.1406 1258.3 37.0156C1258.03 36.8906 1257.75 36.7188 1257.46 36.5C1257.18 36.2812 1256.94 36.0391 1256.75 35.7734C1256.56 35.5 1256.41 35.168 1256.28 34.7773C1256.16 34.3789 1256.09 33.9414 1256.09 33.4648C1256.09 32.0664 1256.62 30.8945 1257.66 29.9492C1258.72 28.9961 1260 28.5195 1261.52 28.5195C1262.39 28.5195 1263.3 28.707 1264.26 29.082L1264.88 29.3281ZM1270.38 22.9297V33.418C1270.38 34.3633 1270.52 35 1270.79 35.3281C1271.13 35.7422 1271.96 35.9492 1273.26 35.9492V38.293C1271.38 38.293 1269.99 37.7969 1269.1 36.8047C1268.39 35.9922 1268.04 34.8633 1268.04 33.418V22.9297H1270.38ZM1273.26 35.9492C1274.2 35.9492 1275.07 35.8906 1275.86 35.7734C1274.89 34.8672 1274.4 33.8086 1274.4 32.5977C1274.4 31.707 1274.62 30.918 1275.07 30.2305C1275.52 29.543 1276.09 29.0039 1276.78 28.6133C1276.29 28.207 1275.8 27.7422 1275.31 27.2188L1277.05 25.6484C1277.54 26.1953 1278.14 26.7227 1278.84 27.2305C1279.55 27.7383 1280.32 28.1406 1281.15 28.4375C1281.6 28.6016 1282 28.75 1282.33 28.8828C1282.68 29.0156 1283.08 29.1953 1283.54 29.4219C1284.01 29.6406 1284.41 29.8594 1284.76 30.0781C1285.1 30.2969 1285.45 30.5625 1285.81 30.875C1286.18 31.1875 1286.48 31.5117 1286.7 31.8477C1286.94 32.1758 1287.13 32.5586 1287.28 32.9961C1287.43 33.4336 1287.5 33.8906 1287.5 34.3672C1287.5 35.4766 1287.12 36.4102 1286.36 37.168C1285.61 37.918 1284.57 38.293 1283.27 38.293C1282.7 38.293 1281.98 38.2148 1281.1 38.0586C1280.23 37.9023 1279.46 37.7031 1278.8 37.4609C1277.29 38.0156 1275.44 38.293 1273.26 38.293C1272.94 38.293 1272.67 38.1797 1272.44 37.9531C1272.21 37.7188 1272.09 37.4414 1272.09 37.1211C1272.09 36.8008 1272.21 36.5273 1272.44 36.3008C1272.67 36.0664 1272.94 35.9492 1273.26 35.9492ZM1281.43 35.6914C1282.37 35.8633 1282.98 35.9492 1283.27 35.9492C1283.91 35.9492 1284.38 35.8086 1284.69 35.5273C1285 35.2461 1285.16 34.8594 1285.16 34.3672C1285.16 33.375 1284.33 32.4492 1282.67 31.5898C1282.67 32.5273 1282.58 33.3203 1282.39 33.9688C1282.21 34.6172 1281.89 35.1914 1281.43 35.6914ZM1278.82 34.9297C1279.25 34.7891 1279.64 34.3906 1280 33.7344C1280.36 33.0781 1280.54 32.4414 1280.54 31.8242C1280.54 31.3711 1280.42 31.0078 1280.19 30.7344C1279.96 30.4531 1279.6 30.3125 1279.11 30.3125C1278.55 30.3125 1278.02 30.5273 1277.5 30.957C1277 31.3867 1276.74 31.9336 1276.74 32.5977C1276.74 33.0352 1276.93 33.4648 1277.32 33.8867C1277.71 34.3008 1278.21 34.6484 1278.82 34.9297ZM1310.22 38.293C1309.26 38.293 1308.41 38.1562 1307.68 37.8828C1306.95 37.6016 1306.31 37.1172 1305.75 36.4297C1305.27 37.0625 1304.65 37.5312 1303.88 37.8359C1303.12 38.1406 1302.3 38.293 1301.42 38.293C1299.7 38.293 1298.19 37.7773 1296.88 36.7461L1298.3 34.8945C1299.21 35.5977 1300.25 35.9492 1301.42 35.9492C1302.29 35.9492 1302.96 35.7734 1303.45 35.4219C1303.94 35.0625 1304.19 34.6094 1304.19 34.0625C1304.19 33.7344 1304.09 33.3516 1303.91 32.9141L1301.88 28.1562L1304.04 27.2188L1306.48 32.9609C1306.7 33.4531 1306.88 33.8633 1307.04 34.1914C1307.2 34.5117 1307.38 34.7891 1307.56 35.0234C1307.75 35.25 1307.91 35.4219 1308.05 35.5391C1308.2 35.6562 1308.4 35.75 1308.64 35.8203C1308.89 35.8828 1309.12 35.9219 1309.32 35.9375C1309.53 35.9453 1309.83 35.9492 1310.22 35.9492V38.293ZM1310.36 25.0039L1312.14 23.2227L1313.93 25.0039L1312.14 26.7852L1310.36 25.0039ZM1310.22 35.9492C1310.86 35.9492 1311.4 35.875 1311.86 35.7266C1312.32 35.5781 1312.63 35.418 1312.78 35.2461C1313.18 34.7695 1313.38 33.957 1313.38 32.8086C1313.38 31.7852 1313.14 30.5469 1312.66 29.0938L1314.89 28.3672C1315.44 30.0312 1315.72 31.5117 1315.72 32.8086C1315.72 34.5273 1315.34 35.8398 1314.58 36.7461C1313.71 37.7773 1312.26 38.293 1310.22 38.293C1309.9 38.293 1309.63 38.1797 1309.4 37.9531C1309.17 37.7188 1309.05 37.4414 1309.05 37.1211C1309.05 36.8008 1309.17 36.5273 1309.4 36.3008C1309.63 36.0664 1309.9 35.9492 1310.22 35.9492ZM1318.84 31.7422L1321.02 30.875C1321.55 32.1953 1321.91 33.4062 1322.09 34.5078C1322.24 34.8906 1322.4 35.1758 1322.56 35.3633C1322.73 35.5508 1322.97 35.6953 1323.3 35.7969C1323.63 35.8984 1324.08 35.9492 1324.66 35.9492V38.293C1323.7 38.293 1322.87 38.1328 1322.16 37.8125C1321.93 39.2969 1321.3 40.5938 1320.29 41.7031C1319.28 42.8125 1317.9 43.6875 1316.15 44.3281L1315.36 42.125C1316.99 41.5312 1318.16 40.7695 1318.86 39.8398C1319.57 38.918 1319.93 37.793 1319.93 36.4648C1319.93 35.1289 1319.56 33.5547 1318.84 31.7422ZM1324.43 42.5117L1326.21 40.7305L1327.99 42.5117L1326.21 44.293L1324.43 42.5117ZM1324.66 35.9492C1325.29 35.9492 1325.84 35.875 1326.3 35.7266C1326.76 35.5781 1327.07 35.418 1327.21 35.2461C1327.61 34.7695 1327.81 33.957 1327.81 32.8086C1327.81 31.7852 1327.57 30.5469 1327.1 29.0938L1329.32 28.3672C1329.88 30.0312 1330.16 31.5117 1330.16 32.8086C1330.16 34.5273 1329.78 35.8398 1329.02 36.7461C1328.15 37.7773 1326.7 38.293 1324.66 38.293C1324.34 38.293 1324.07 38.1797 1323.84 37.9531C1323.61 37.7188 1323.49 37.4414 1323.49 37.1211C1323.49 36.8008 1323.61 36.5273 1323.84 36.3008C1324.07 36.0664 1324.34 35.9492 1324.66 35.9492Z" fill="#DE3800"/>
</svg>
