<svg width="20" height="21" viewBox="0 0 20 21" fill="none" xmlns="http://www.w3.org/2000/svg">
<path d="M7.97501 16.1834C7.81668 16.1834 7.65835 16.1251 7.53335 16.0001L2.47501 10.9418C2.23335 10.7001 2.23335 10.3001 2.47501 10.0584L7.53335 5.0001C7.77501 4.75843 8.17501 4.75843 8.41668 5.0001C8.65835 5.24176 8.65835 5.64176 8.41668 5.88343L3.80001 10.5001L8.41668 15.1168C8.65835 15.3584 8.65835 15.7584 8.41668 16.0001C8.30001 16.1251 8.13335 16.1834 7.97501 16.1834Z" fill="#FAFAFA"/>
<path d="M17.0834 11.125H3.05835C2.71668 11.125 2.43335 10.8417 2.43335 10.5C2.43335 10.1583 2.71668 9.875 3.05835 9.875H17.0834C17.425 9.875 17.7084 10.1583 17.7084 10.5C17.7084 10.8417 17.425 11.125 17.0834 11.125Z" fill="#FAFAFA"/>
</svg>
