<svg width="21" height="20" viewBox="0 0 21 20" fill="none" xmlns="http://www.w3.org/2000/svg">
<path d="M8.47501 15.6833C8.31668 15.6833 8.15835 15.625 8.03335 15.5L2.97501 10.4416C2.73335 10.2 2.73335 9.79998 2.97501 9.55831L8.03335 4.49998C8.27501 4.25831 8.67501 4.25831 8.91668 4.49998C9.15835 4.74164 9.15835 5.14164 8.91668 5.38331L4.30001 9.99998L8.91668 14.6166C9.15835 14.8583 9.15835 15.2583 8.91668 15.5C8.80001 15.625 8.63335 15.6833 8.47501 15.6833Z" fill="#363636"/>
<path d="M17.5834 10.625H3.55835C3.21668 10.625 2.93335 10.3417 2.93335 10C2.93335 9.65833 3.21668 9.375 3.55835 9.375H17.5834C17.925 9.375 18.2084 9.65833 18.2084 10C18.2084 10.3417 17.925 10.625 17.5834 10.625Z" fill="#363636"/>
</svg>
