<svg width="149" height="58" viewBox="0 0 149 58" fill="none" xmlns="http://www.w3.org/2000/svg">
<path d="M4.46875 22.9297V33.418C4.46875 34.3633 4.60547 35 4.87891 35.3281C5.22266 35.7422 6.04688 35.9492 7.35156 35.9492V38.293C5.46875 38.293 4.08203 37.7969 3.19141 36.8047C2.48047 35.9922 2.125 34.8633 2.125 33.418V22.9297H4.46875ZM7.35156 35.9492C8.28906 35.9492 9.15625 35.8906 9.95312 35.7734C8.97656 34.8672 8.48828 33.8086 8.48828 32.5977C8.48828 31.707 8.71094 30.918 9.15625 30.2305C9.60938 29.543 10.1797 29.0039 10.8672 28.6133C10.375 28.207 9.88672 27.7422 9.40234 27.2188L11.1367 25.6484C11.6289 26.1953 12.2266 26.7227 12.9297 27.2305C13.6406 27.7383 14.4102 28.1406 15.2383 28.4375C15.6914 28.6016 16.0859 28.75 16.4219 28.8828C16.7656 29.0156 17.168 29.1953 17.6289 29.4219C18.0977 29.6406 18.5039 29.8594 18.8477 30.0781C19.1914 30.2969 19.543 30.5625 19.9023 30.875C20.2695 31.1875 20.5664 31.5117 20.793 31.8477C21.0273 32.1758 21.2188 32.5586 21.3672 32.9961C21.5156 33.4336 21.5898 33.8906 21.5898 34.3672C21.5898 35.4766 21.2109 36.4102 20.4531 37.168C19.6953 37.918 18.6641 38.293 17.3594 38.293C16.7891 38.293 16.0664 38.2148 15.1914 38.0586C14.3164 37.9023 13.5508 37.7031 12.8945 37.4609C11.3789 38.0156 9.53125 38.293 7.35156 38.293C7.03125 38.293 6.75781 38.1797 6.53125 37.9531C6.29688 37.7188 6.17969 37.4414 6.17969 37.1211C6.17969 36.8008 6.29688 36.5273 6.53125 36.3008C6.75781 36.0664 7.03125 35.9492 7.35156 35.9492ZM15.5195 35.6914C16.457 35.8633 17.0703 35.9492 17.3594 35.9492C18 35.9492 18.4727 35.8086 18.7773 35.5273C19.0898 35.2461 19.2461 34.8594 19.2461 34.3672C19.2461 33.375 18.418 32.4492 16.7617 31.5898C16.7617 32.5273 16.668 33.3203 16.4805 33.9688C16.3008 34.6172 15.9805 35.1914 15.5195 35.6914ZM12.9062 34.9297C13.3359 34.7891 13.7305 34.3906 14.0898 33.7344C14.4492 33.0781 14.6289 32.4414 14.6289 31.8242C14.6289 31.3711 14.5117 31.0078 14.2773 30.7344C14.0508 30.4531 13.6914 30.3125 13.1992 30.3125C12.6445 30.3125 12.1094 30.5273 11.5938 30.957C11.0859 31.3867 10.832 31.9336 10.832 32.5977C10.832 33.0352 11.0234 33.4648 11.4062 33.8867C11.7969 34.3008 12.2969 34.6484 12.9062 34.9297ZM35.8047 32.1523C35.1484 33.207 34.6406 34.2422 34.2812 35.2578C33.9219 36.2734 33.7422 37.1836 33.7422 37.9883C33.7422 39.168 34.2227 40.1055 35.1836 40.8008C36.1523 41.4961 37.4336 41.8438 39.0273 41.8438C40.1914 41.8438 41.2422 41.6562 42.1797 41.2812C43.125 40.9062 43.8789 40.3477 44.4414 39.6055C45.0117 38.8633 45.2969 37.9922 45.2969 36.9922C45.2969 36.1953 45.1055 35.3008 44.7227 34.3086L43.668 31.5898L45.8711 30.7461L47.2188 34.2031C47.3984 34.6641 47.582 35.0078 47.7695 35.2344C47.957 35.4609 48.25 35.6406 48.6484 35.7734C49.0469 35.8984 49.5938 35.9609 50.2891 35.9609V38.3047C49.2344 38.3047 48.3359 38.1562 47.5938 37.8594C47.4688 38.9062 47.1289 39.8438 46.5742 40.6719C46.0273 41.5 45.3477 42.1641 44.5352 42.6641C43.7305 43.1641 42.8555 43.543 41.9102 43.8008C40.9727 44.0586 40.0117 44.1875 39.0273 44.1875C38.0586 44.1875 37.1289 44.0586 36.2383 43.8008C35.3477 43.543 34.5352 43.1641 33.8008 42.6641C33.0742 42.1719 32.4922 41.5195 32.0547 40.707C31.6172 39.9023 31.3984 38.9961 31.3984 37.9883C31.3984 35.8867 32.2109 33.5352 33.8359 30.9336L35.8047 32.1523ZM37.75 34.3789L39.5312 32.5977L41.3125 34.3789L39.5312 36.1602L37.75 34.3789ZM50.2891 35.9492H51.6953V38.293H50.2891C49.9688 38.293 49.6953 38.1797 49.4688 37.9531C49.2344 37.7188 49.1172 37.4414 49.1172 37.1211C49.1172 36.8008 49.2344 36.5273 49.4688 36.3008C49.6953 36.0664 49.9688 35.9492 50.2891 35.9492ZM52.5391 42.5117L54.3203 40.7305L56.1016 42.5117L54.3203 44.293L52.5391 42.5117ZM48.6602 42.5117L50.4414 40.7305L52.2227 42.5117L50.4414 44.293L48.6602 42.5117ZM51.707 35.9492C52.3398 35.9492 52.8867 35.875 53.3477 35.7266C53.8086 35.5781 54.1133 35.418 54.2617 35.2461C54.6602 34.7695 54.8594 33.957 54.8594 32.8086C54.8594 31.7852 54.6211 30.5469 54.1445 29.0938L56.3711 28.3672C56.9258 30.0312 57.2031 31.5117 57.2031 32.8086C57.2031 34.5273 56.8242 35.8398 56.0664 36.7461C55.1992 37.7773 53.7461 38.293 51.707 38.293C51.3867 38.293 51.1133 38.1797 50.8867 37.9531C50.6523 37.7188 50.5352 37.4414 50.5352 37.1211C50.5352 36.8008 50.6523 36.5273 50.8867 36.3008C51.1133 36.0664 51.3867 35.9492 51.707 35.9492ZM61.1992 31.7422L63.3789 30.875C63.9102 32.1953 64.2695 33.4062 64.457 34.5078C64.6055 34.8906 64.7617 35.1758 64.9258 35.3633C65.0898 35.5508 65.3359 35.6953 65.6641 35.7969C65.9922 35.8984 66.4453 35.9492 67.0234 35.9492V38.293C66.0625 38.293 65.2305 38.1328 64.5273 37.8125C64.293 39.2969 63.668 40.5938 62.6523 41.7031C61.6445 42.8125 60.2656 43.6875 58.5156 44.3281L57.7188 42.125C59.3516 41.5312 60.5195 40.7695 61.2227 39.8398C61.9336 38.918 62.2891 37.793 62.2891 36.4648C62.2891 35.1289 61.9258 33.5547 61.1992 31.7422ZM69.8711 25.0039L71.6523 23.2227L73.4336 25.0039L71.6523 26.7852L69.8711 25.0039ZM65.9922 25.0039L67.7734 23.2227L69.5547 25.0039L67.7734 26.7852L65.9922 25.0039ZM67.0234 35.9492C67.6562 35.9492 68.2031 35.875 68.6641 35.7266C69.125 35.5781 69.4297 35.418 69.5781 35.2461C69.9766 34.7695 70.1758 33.957 70.1758 32.8086C70.1758 31.7852 69.9375 30.5469 69.4609 29.0938L71.6875 28.3672C72.2422 30.0312 72.5195 31.5117 72.5195 32.8086C72.5195 34.5273 72.1406 35.8398 71.3828 36.7461C70.5156 37.7773 69.0625 38.293 67.0234 38.293C66.7031 38.293 66.4297 38.1797 66.2031 37.9531C65.9688 37.7188 65.8516 37.4414 65.8516 37.1211C65.8516 36.8008 65.9688 36.5273 66.2031 36.3008C66.4297 36.0664 66.7031 35.9492 67.0234 35.9492ZM75.6367 31.7422L77.8164 30.875C78.6523 32.9688 79.0703 34.832 79.0703 36.4648C79.0703 38.2773 78.5547 39.8555 77.5234 41.1992C76.4922 42.5508 74.9688 43.5938 72.9531 44.3281L72.1562 42.125C73.7891 41.5312 74.957 40.7695 75.6602 39.8398C76.3711 38.918 76.7266 37.793 76.7266 36.4648C76.7266 35.1289 76.3633 33.5547 75.6367 31.7422ZM84.0859 38.2578H81.7422V22.9531H84.0859V38.2578ZM99.6719 38.293C98.7109 38.293 97.8633 38.1562 97.1289 37.8828C96.4023 37.6016 95.7578 37.1172 95.1953 36.4297C94.7188 37.0625 94.0977 37.5312 93.332 37.8359C92.5664 38.1406 91.7461 38.293 90.8711 38.293C89.1523 38.293 87.6367 37.7773 86.3242 36.7461L87.7539 34.8945C88.6602 35.5977 89.6992 35.9492 90.8711 35.9492C91.7383 35.9492 92.4141 35.7734 92.8984 35.4219C93.3906 35.0625 93.6367 34.6094 93.6367 34.0625C93.6367 33.7344 93.543 33.3516 93.3555 32.9141L91.3281 28.1562L93.4844 27.2188L95.9336 32.9609C96.1445 33.4531 96.3281 33.8633 96.4844 34.1914C96.6484 34.5117 96.8242 34.7891 97.0117 35.0234C97.1992 35.25 97.3633 35.4219 97.5039 35.5391C97.6523 35.6562 97.8477 35.75 98.0898 35.8203C98.3398 35.8828 98.5664 35.9219 98.7695 35.9375C98.9805 35.9453 99.2812 35.9492 99.6719 35.9492V38.293ZM103.316 20.3516L105.098 18.5703L106.879 20.3516L105.098 22.1328L103.316 20.3516ZM99.6719 38.293C99.3516 38.293 99.0781 38.1797 98.8516 37.9531C98.6172 37.7188 98.5 37.4414 98.5 37.1211C98.5 36.8008 98.6172 36.5234 98.8516 36.2891C99.0781 36.0469 99.3516 35.9258 99.6719 35.9258C101.945 35.9258 103.676 35.7969 104.863 35.5391C106.051 35.2734 106.77 34.7812 107.02 34.0625C106.457 34.1719 105.887 34.2266 105.309 34.2266C104.863 34.2266 104.434 34.1836 104.02 34.0977C103.605 34.0117 103.207 33.8711 102.824 33.6758C102.441 33.4727 102.109 33.2266 101.828 32.9375C101.547 32.6484 101.32 32.2852 101.148 31.8477C100.984 31.4023 100.902 30.9102 100.902 30.3711C100.902 29.7617 101 29.1523 101.195 28.543C101.391 27.9258 101.66 27.3633 102.004 26.8555C102.355 26.3477 102.801 25.9336 103.34 25.6133C103.879 25.293 104.465 25.1328 105.098 25.1328C105.66 25.1328 106.172 25.2422 106.633 25.4609C107.102 25.6797 107.484 25.9609 107.781 26.3047C108.086 26.6406 108.352 27.0508 108.578 27.5352C108.805 28.0195 108.977 28.4922 109.094 28.9531C109.219 29.4062 109.316 29.8984 109.387 30.4297C109.457 30.9531 109.5 31.3906 109.516 31.7422C109.539 32.0859 109.551 32.4297 109.551 32.7734C109.551 33.3516 109.484 33.8828 109.352 34.3672C109.219 34.8438 109.043 35.2617 108.824 35.6211C108.605 35.9727 108.316 36.2891 107.957 36.5703C107.605 36.8516 107.25 37.0859 106.891 37.2734C106.539 37.4531 106.109 37.6094 105.602 37.7422C105.094 37.875 104.629 37.9766 104.207 38.0469C103.793 38.1172 103.289 38.1719 102.695 38.2109C102.109 38.25 101.605 38.2734 101.184 38.2812C100.77 38.2891 100.266 38.293 99.6719 38.293ZM107.16 31.625C107.059 30.4141 106.812 29.4219 106.422 28.6484C106.031 27.8672 105.59 27.4766 105.098 27.4766C104.715 27.4766 104.309 27.7617 103.879 28.332C103.457 28.9023 103.246 29.582 103.246 30.3711C103.246 30.9492 103.391 31.3477 103.68 31.5664C103.969 31.7773 104.512 31.8828 105.309 31.8828C105.926 31.8828 106.543 31.7969 107.16 31.625ZM112.387 31.7422L114.566 30.875C115.098 32.1953 115.457 33.4062 115.645 34.5078C115.793 34.8906 115.949 35.1758 116.113 35.3633C116.277 35.5508 116.523 35.6953 116.852 35.7969C117.18 35.8984 117.633 35.9492 118.211 35.9492V38.293C117.25 38.293 116.418 38.1328 115.715 37.8125C115.48 39.2969 114.855 40.5938 113.84 41.7031C112.832 42.8125 111.453 43.6875 109.703 44.3281L108.906 42.125C110.539 41.5312 111.707 40.7695 112.41 39.8398C113.121 38.918 113.477 37.793 113.477 36.4648C113.477 35.1289 113.113 33.5547 112.387 31.7422ZM118.211 35.9492H120.062V22.9531H122.406V32.1172C123.281 31.1562 124.227 30.4023 125.242 29.8555C126.266 29.3086 127.203 29.0352 128.055 29.0352C128.758 29.0352 129.418 29.1797 130.035 29.4688C130.66 29.7578 131.18 30.207 131.594 30.8164C132.008 31.418 132.215 32.1172 132.215 32.9141C132.215 33.8125 132.02 34.5898 131.629 35.2461C131.246 35.8945 130.625 36.4531 129.766 36.9219C128.914 37.3828 127.781 37.7266 126.367 37.9531C124.953 38.1797 123.242 38.293 121.234 38.293H118.211C117.891 38.293 117.617 38.1797 117.391 37.9531C117.156 37.7188 117.039 37.4414 117.039 37.1211C117.039 36.8008 117.156 36.5273 117.391 36.3008C117.617 36.0664 117.891 35.9492 118.211 35.9492ZM122.57 35.9375C123.531 35.9141 124.391 35.8633 125.148 35.7852C125.906 35.6992 126.539 35.6055 127.047 35.5039C127.555 35.3945 127.988 35.2578 128.348 35.0938C128.707 34.9297 128.984 34.7734 129.18 34.625C129.375 34.4766 129.523 34.2969 129.625 34.0859C129.734 33.8672 129.801 33.6758 129.824 33.5117C129.855 33.3477 129.871 33.1484 129.871 32.9141C129.871 32.4453 129.707 32.0742 129.379 31.8008C129.059 31.5195 128.617 31.3789 128.055 31.3789C127.773 31.3789 127.461 31.4258 127.117 31.5195C126.781 31.6133 126.402 31.7773 125.98 32.0117C125.566 32.2383 125.16 32.5195 124.762 32.8555C124.363 33.1914 123.969 33.6289 123.578 34.168C123.188 34.6992 122.852 35.2891 122.57 35.9375ZM134.98 31.7422L137.16 30.875C137.691 32.1953 138.051 33.4062 138.238 34.5078C138.387 34.8906 138.543 35.1758 138.707 35.3633C138.871 35.5508 139.117 35.6953 139.445 35.7969C139.773 35.8984 140.227 35.9492 140.805 35.9492V38.293C139.844 38.293 139.012 38.1328 138.309 37.8125C138.074 39.2969 137.449 40.5938 136.434 41.7031C135.426 42.8125 134.047 43.6875 132.297 44.3281L131.5 42.125C133.133 41.5312 134.301 40.7695 135.004 39.8398C135.715 38.918 136.07 37.793 136.07 36.4648C136.07 35.1289 135.707 33.5547 134.98 31.7422ZM140.805 35.9492H142.211V38.293H140.805C140.484 38.293 140.211 38.1797 139.984 37.9531C139.75 37.7188 139.633 37.4414 139.633 37.1211C139.633 36.8008 139.75 36.5273 139.984 36.3008C140.211 36.0664 140.484 35.9492 140.805 35.9492ZM141.098 45.8281L142.879 44.0469L144.66 45.8281L142.879 47.6094L141.098 45.8281ZM143.031 42.5L144.812 40.7188L146.594 42.5L144.812 44.2812L143.031 42.5ZM139.152 42.5L140.934 40.7188L142.715 42.5L140.934 44.2812L139.152 42.5ZM142.223 35.9492C142.855 35.9492 143.402 35.875 143.863 35.7266C144.324 35.5781 144.629 35.418 144.777 35.2461C145.176 34.7695 145.375 33.957 145.375 32.8086C145.375 31.7852 145.137 30.5469 144.66 29.0938L146.887 28.3672C147.441 30.0312 147.719 31.5117 147.719 32.8086C147.719 34.5273 147.34 35.8398 146.582 36.7461C145.715 37.7773 144.262 38.293 142.223 38.293C141.902 38.293 141.629 38.1797 141.402 37.9531C141.168 37.7188 141.051 37.4414 141.051 37.1211C141.051 36.8008 141.168 36.5273 141.402 36.3008C141.629 36.0664 141.902 35.9492 142.223 35.9492Z" fill="#363636"/>
</svg>
