<svg width="204" height="58" viewBox="0 0 204 58" fill="none" xmlns="http://www.w3.org/2000/svg">
<path d="M10.6523 28.9062L12.4336 27.125L14.2148 28.9062L12.4336 30.6875L10.6523 28.9062ZM6.77344 28.9062L8.55469 27.125L10.3359 28.9062L8.55469 30.6875L6.77344 28.9062ZM17.0508 30.3477L19.3242 29.7383L19.8164 31.5898C19.957 32.0977 20.0273 32.6719 20.0273 33.3125C20.0273 33.9453 19.9258 34.5156 19.7227 35.0234C19.5195 35.5312 19.2539 35.957 18.9258 36.3008C18.6055 36.6367 18.1875 36.9297 17.6719 37.1797C17.1641 37.4297 16.6523 37.625 16.1367 37.7656C15.6211 37.9062 15.0195 38.0156 14.332 38.0938C13.6445 38.1797 13.0156 38.2344 12.4453 38.2578C11.875 38.2812 11.2266 38.293 10.5 38.293C9.77344 38.293 9.125 38.2812 8.55469 38.2578C7.98438 38.2344 7.35156 38.1797 6.65625 38.0938C5.96875 38.0156 5.36719 37.9102 4.85156 37.7773C4.34375 37.6367 3.83203 37.4414 3.31641 37.1914C2.80078 36.9414 2.37891 36.6445 2.05078 36.3008C1.73047 35.957 1.46875 35.5312 1.26562 35.0234C1.0625 34.5156 0.960938 33.9453 0.960938 33.3125C0.960938 32.6953 1.03516 32.1211 1.18359 31.5898L1.67578 29.7383L3.94922 30.3477L3.43359 32.2109C3.34766 32.5156 3.30469 32.8828 3.30469 33.3125C3.30469 34.2656 3.86328 34.9453 4.98047 35.3516C6.09766 35.75 7.9375 35.9492 10.5 35.9492C13.0703 35.9492 14.9102 35.75 16.0195 35.3516C17.1289 34.9531 17.6836 34.2734 17.6836 33.3125C17.6836 32.8438 17.6445 32.4766 17.5664 32.2109L17.0508 30.3477ZM28.8164 32.5508C27.8867 33.6602 26.8047 34.7109 25.5703 35.7031C26.1875 35.8672 26.7969 35.9492 27.3984 35.9492C28.9062 35.9492 29.6602 35.6445 29.6602 35.0352C29.6602 34.8008 29.5859 34.457 29.4375 34.0039C29.2891 33.5508 29.082 33.0664 28.8164 32.5508ZM22.8281 34.8359C24.7578 33.4609 26.3203 31.9844 27.5156 30.4062C26.75 29.2969 25.8867 28.25 24.9258 27.2656C23.9727 26.2734 23.0312 25.4453 22.1016 24.7812L23.4492 22.8477C25.3867 24.207 27.1914 26.0117 28.8633 28.2617C29.6836 26.6445 30.0938 24.8672 30.0938 22.9297H32.4375C32.4375 25.6328 31.7305 28.1367 30.3164 30.4414C31.4414 32.3398 32.0039 33.8711 32.0039 35.0352C32.0039 35.5742 31.8906 36.0508 31.6641 36.4648C31.4453 36.8711 31.1719 37.1875 30.8438 37.4141C30.5234 37.6406 30.1406 37.8242 29.6953 37.9648C29.25 38.1055 28.8477 38.1953 28.4883 38.2344C28.1367 38.2734 27.7734 38.293 27.3984 38.293C25.7578 38.293 24.2344 37.8555 22.8281 36.9805V34.8359ZM43.0664 38.293C42.4336 41.1523 39.8594 43.1562 35.3438 44.3047L34.7578 42.0312C38.0547 41.1875 40.0117 39.9414 40.6289 38.293H38.9766C38.5312 38.293 38.1016 38.25 37.6875 38.1641C37.2734 38.0781 36.875 37.9375 36.4922 37.7422C36.1094 37.5391 35.7773 37.293 35.4961 37.0039C35.2148 36.7148 34.9883 36.3516 34.8164 35.9141C34.6523 35.4688 34.5703 34.9766 34.5703 34.4375C34.5703 33.8281 34.668 33.2188 34.8633 32.6094C35.0586 31.9922 35.3281 31.4297 35.6719 30.9219C36.0234 30.4141 36.4688 30 37.0078 29.6797C37.5469 29.3594 38.1328 29.1992 38.7656 29.1992C39.2734 29.1992 39.7383 29.2891 40.1602 29.4688C40.582 29.6484 40.9375 29.8828 41.2266 30.1719C41.5234 30.4531 41.7852 30.7969 42.0117 31.2031C42.2383 31.6094 42.418 32.0117 42.5508 32.4102C42.6914 32.8008 42.8086 33.2305 42.9023 33.6992C42.9961 34.168 43.0625 34.5703 43.1016 34.9062C43.1406 35.2422 43.1719 35.5898 43.1953 35.9492H44.1328V38.293H43.0664ZM40.8398 35.9492C40.7539 34.6914 40.5156 33.6445 40.125 32.8086C39.7344 31.9648 39.2812 31.543 38.7656 31.543C38.3828 31.543 37.9766 31.8281 37.5469 32.3984C37.125 32.9688 36.9141 33.6484 36.9141 34.4375C36.9141 35.0156 37.0586 35.4141 37.3477 35.6328C37.6367 35.8438 38.1797 35.9492 38.9766 35.9492H40.8398ZM44.1328 35.9492C45.3281 35.9492 46.1641 35.7109 46.6406 35.2344C47.1875 34.6875 47.4609 33.5898 47.4609 31.9414V31.0391H49.8047V33.6758C49.8047 34.1445 49.8672 34.5234 49.9922 34.8125C51.0625 32.8828 52.2812 31.4375 53.6484 30.4766C55.0234 29.5156 56.3711 29.0352 57.6914 29.0352C58.3945 29.0352 59.0547 29.1797 59.6719 29.4688C60.2969 29.7578 60.8164 30.207 61.2305 30.8164C61.6445 31.418 61.8516 32.1172 61.8516 32.9141C61.8516 33.8281 61.5625 34.6562 60.9844 35.3984C61.4453 35.7656 62.2148 35.9492 63.293 35.9492V38.293C61.4883 38.293 60.1133 37.8359 59.168 36.9219C58.3945 37.3672 57.5273 37.707 56.5664 37.9414C55.6133 38.1758 54.707 38.293 53.8477 38.293C52.582 38.293 51.5 38.1797 50.6016 37.9531C49.7109 37.7188 49 37.3047 48.4688 36.7109C47.5312 37.7656 46.0859 38.293 44.1328 38.293C43.8125 38.293 43.5391 38.1797 43.3125 37.9531C43.0781 37.7188 42.9609 37.4414 42.9609 37.1211C42.9609 36.8008 43.0781 36.5273 43.3125 36.3008C43.5391 36.0664 43.8125 35.9492 44.1328 35.9492ZM52.0898 35.8555C52.6133 35.918 53.1992 35.9492 53.8477 35.9492C54.8008 35.9492 55.7227 35.7852 56.6133 35.457C57.5117 35.1211 58.2188 34.7188 58.7344 34.25C59.25 33.7812 59.5078 33.3359 59.5078 32.9141C59.5078 32.4453 59.3438 32.0742 59.0156 31.8008C58.6953 31.5195 58.2539 31.3789 57.6914 31.3789C57.3242 31.3789 56.9297 31.4531 56.5078 31.6016C56.0938 31.7422 55.6367 31.9727 55.1367 32.293C54.6445 32.6133 54.1289 33.0781 53.5898 33.6875C53.0586 34.2969 52.5586 35.0195 52.0898 35.8555ZM76.1836 34.5547C76.418 34.7969 76.6094 34.9883 76.7578 35.1289C76.9141 35.2617 77.1133 35.4023 77.3555 35.5508C77.6055 35.6914 77.8867 35.793 78.1992 35.8555C78.5195 35.918 78.8906 35.9492 79.3125 35.9492V38.293C77.1328 38.293 75.3438 37.3828 73.9453 35.5625C73.2734 35.9766 72.6211 36.332 71.9883 36.6289C71.3633 36.918 70.6211 37.1992 69.7617 37.4727C68.9102 37.7383 67.9414 37.9414 66.8555 38.082C65.7773 38.2227 64.5938 38.293 63.3047 38.293C62.9844 38.293 62.7109 38.1797 62.4844 37.9531C62.25 37.7188 62.1328 37.4414 62.1328 37.1211C62.1328 36.8008 62.25 36.5273 62.4844 36.3008C62.7109 36.0664 62.9844 35.9492 63.3047 35.9492C64.8359 35.9492 66.1992 35.8398 67.3945 35.6211C68.5898 35.4023 69.543 35.1445 70.2539 34.8477C70.9648 34.5508 71.7266 34.1562 72.5391 33.6641C73.2109 33.2656 73.8477 32.9414 74.4492 32.6914L69.7969 30.4414C69.2969 30.1914 68.8359 30.0664 68.4141 30.0664C67.4766 30.0664 66.8438 31.0898 66.5156 33.1367L64.1953 32.7617C64.2734 32.2773 64.3711 31.8281 64.4883 31.4141C64.6055 30.9922 64.7734 30.5469 64.9922 30.0781C65.2188 29.6016 65.4766 29.1992 65.7656 28.8711C66.0625 28.543 66.4375 28.2695 66.8906 28.0508C67.3438 27.832 67.8516 27.7227 68.4141 27.7227C69.1484 27.7227 69.9531 27.9258 70.8281 28.332L78.0352 31.8125V34.0859C77.2227 34.2656 76.6055 34.4219 76.1836 34.5547ZM79.3125 35.9492C79.8672 35.9492 80.2812 35.8477 80.5547 35.6445C80.8281 35.4414 81.1094 35.043 81.3984 34.4492C81.6016 34.0273 81.7969 33.5586 81.9844 33.043C82.1641 32.543 82.3828 32.082 82.6406 31.6602C82.8984 31.2383 83.2031 30.8477 83.5547 30.4883C83.9141 30.1211 84.3359 29.8359 84.8203 29.6328C85.3125 29.4219 85.8398 29.3164 86.4023 29.3164C86.9336 29.3164 87.4336 29.418 87.9023 29.6211C88.3711 29.8242 88.7695 30.0938 89.0977 30.4297C89.4258 30.7578 89.707 31.1367 89.9414 31.5664C90.1836 31.9883 90.3633 32.4297 90.4805 32.8906C90.5977 33.3438 90.6562 33.7891 90.6562 34.2266C90.6562 35.3203 90.293 36.2734 89.5664 37.0859C88.8398 37.8906 87.9531 38.293 86.9062 38.293C86.2031 38.293 85.5 38.1289 84.7969 37.8008C84.1016 37.4727 83.4648 37.0508 82.8867 36.5352C82.0273 37.707 80.8359 38.293 79.3125 38.293C78.9922 38.293 78.7188 38.1797 78.4922 37.9531C78.2578 37.7188 78.1406 37.4414 78.1406 37.1211C78.1406 36.8008 78.2578 36.5273 78.4922 36.3008C78.7188 36.0664 78.9922 35.9492 79.3125 35.9492ZM84 34.3203C84.3359 34.7344 84.8047 35.1094 85.4062 35.4453C86.0078 35.7812 86.5078 35.9492 86.9062 35.9492C87.2344 35.9492 87.5508 35.7852 87.8555 35.457C88.1602 35.1289 88.3125 34.7188 88.3125 34.2266C88.3125 33.5469 88.1094 32.9492 87.7031 32.4336C87.3047 31.918 86.8711 31.6602 86.4023 31.6602C85.4648 31.6602 84.7266 32.3906 84.1875 33.8516L84 34.3203Z" fill="#363636"/>
<path d="M115.137 29.3281L114.27 31.5078L113.648 31.2617C112.977 30.9961 112.352 30.8633 111.773 30.8633C110.844 30.8633 110.098 31.1211 109.535 31.6367C108.973 32.1523 108.691 32.7617 108.691 33.4648C108.691 33.7461 108.73 33.9883 108.809 34.1914C108.887 34.3867 108.988 34.5508 109.113 34.6836C109.246 34.8086 109.434 34.9141 109.676 35C109.918 35.0859 110.164 35.1562 110.414 35.2109C110.672 35.2578 111.004 35.3047 111.41 35.3516C111.793 35.3984 112.141 35.457 112.453 35.5273C112.766 35.5977 113.121 35.7188 113.52 35.8906C113.918 36.0625 114.25 36.2734 114.516 36.5234C114.789 36.7734 115.02 37.1133 115.207 37.543C115.402 37.9648 115.5 38.4531 115.5 39.0078C115.5 39.6875 115.359 40.3164 115.078 40.8945C114.805 41.4805 114.438 41.9688 113.977 42.3594C113.523 42.7578 112.996 43.0977 112.395 43.3789C111.801 43.6602 111.184 43.8633 110.543 43.9883C109.902 44.1211 109.262 44.1875 108.621 44.1875C107.738 44.1875 106.895 44.1055 106.09 43.9414C105.285 43.7773 104.539 43.5234 103.852 43.1797C103.164 42.8438 102.566 42.4336 102.059 41.9492C101.559 41.4727 101.164 40.8984 100.875 40.2266C100.594 39.5625 100.453 38.8398 100.453 38.0586C100.453 36.4102 100.742 34.6953 101.32 32.9141L101.449 32.5039L103.676 33.207L103.547 33.6172C103.047 35.1875 102.797 36.668 102.797 38.0586C102.797 39.168 103.301 40.0742 104.309 40.7773C105.316 41.4883 106.754 41.8438 108.621 41.8438C109.941 41.8438 111.027 41.5625 111.879 41C112.73 40.4375 113.156 39.7734 113.156 39.0078C113.156 38.5234 113.035 38.207 112.793 38.0586C112.551 37.9102 111.996 37.7812 111.129 37.6719C110.84 37.6328 110.578 37.5938 110.344 37.5547C110.109 37.5156 109.82 37.4492 109.477 37.3555C109.133 37.2539 108.824 37.1406 108.551 37.0156C108.285 36.8906 108.008 36.7188 107.719 36.5C107.43 36.2812 107.191 36.0391 107.004 35.7734C106.816 35.5 106.66 35.168 106.535 34.7773C106.41 34.3789 106.348 33.9414 106.348 33.4648C106.348 32.0664 106.871 30.8945 107.918 29.9492C108.973 28.9961 110.258 28.5195 111.773 28.5195C112.641 28.5195 113.555 28.707 114.516 29.082L115.137 29.3281ZM130.359 38.293C129.398 38.293 128.551 38.1562 127.816 37.8828C127.09 37.6016 126.445 37.1172 125.883 36.4297C125.406 37.0625 124.785 37.5312 124.02 37.8359C123.254 38.1406 122.434 38.293 121.559 38.293C119.84 38.293 118.324 37.7773 117.012 36.7461L118.441 34.8945C119.348 35.5977 120.387 35.9492 121.559 35.9492C122.426 35.9492 123.102 35.7734 123.586 35.4219C124.078 35.0625 124.324 34.6094 124.324 34.0625C124.324 33.7344 124.23 33.3516 124.043 32.9141L122.016 28.1562L124.172 27.2188L126.621 32.9609C126.832 33.4531 127.016 33.8633 127.172 34.1914C127.336 34.5117 127.512 34.7891 127.699 35.0234C127.887 35.25 128.051 35.4219 128.191 35.5391C128.34 35.6562 128.535 35.75 128.777 35.8203C129.027 35.8828 129.254 35.9219 129.457 35.9375C129.668 35.9453 129.969 35.9492 130.359 35.9492V38.293ZM131.461 26.1172L133.242 24.3359L135.023 26.1172L133.242 27.8984L131.461 26.1172ZM130.359 35.9492C131.555 35.9492 132.391 35.7109 132.867 35.2344C133.414 34.6875 133.688 33.5898 133.688 31.9414V31.0391H136.031V31.9414C136.031 33.5352 136.289 34.6172 136.805 35.1875C137.273 35.6953 138.121 35.9492 139.348 35.9492V38.293C137.371 38.293 135.875 37.6992 134.859 36.5117C133.891 37.6992 132.391 38.293 130.359 38.293C130.039 38.293 129.766 38.1797 129.539 37.9531C129.305 37.7188 129.188 37.4414 129.188 37.1211C129.188 36.8008 129.305 36.5273 129.539 36.3008C129.766 36.0664 130.039 35.9492 130.359 35.9492ZM139.125 42.5117L140.906 40.7305L142.688 42.5117L140.906 44.293L139.125 42.5117ZM139.359 35.9492C139.992 35.9492 140.539 35.875 141 35.7266C141.461 35.5781 141.766 35.418 141.914 35.2461C142.312 34.7695 142.512 33.957 142.512 32.8086C142.512 31.7852 142.273 30.5469 141.797 29.0938L144.023 28.3672C144.578 30.0312 144.855 31.5117 144.855 32.8086C144.855 34.5273 144.477 35.8398 143.719 36.7461C142.852 37.7773 141.398 38.293 139.359 38.293C139.039 38.293 138.766 38.1797 138.539 37.9531C138.305 37.7188 138.188 37.4414 138.188 37.1211C138.188 36.8008 138.305 36.5273 138.539 36.3008C138.766 36.0664 139.039 35.9492 139.359 35.9492ZM160.559 29.6797C159.48 29.9141 158.621 30.2695 157.98 30.7461C157.348 31.2227 157.031 31.6992 157.031 32.1758C157.031 32.5977 157.215 32.9336 157.582 33.1836C157.957 33.4258 158.543 33.5469 159.34 33.5469C159.629 33.5469 160.109 33.4766 160.781 33.3359C160.75 32.9766 160.73 32.7031 160.723 32.5156L160.559 29.6797ZM165.949 35.9492V38.293C164.105 38.293 162.75 37.7773 161.883 36.7461C161.625 36.4414 161.414 36.082 161.25 35.668C160.57 35.8164 159.934 35.8906 159.34 35.8906C158.91 35.8906 158.484 35.8516 158.062 35.7734C157.648 35.6953 157.234 35.5625 156.82 35.375C156.406 35.1875 156.043 34.957 155.73 34.6836C155.426 34.4102 155.176 34.0586 154.98 33.6289C154.785 33.1914 154.688 32.707 154.688 32.1758C154.688 31.6133 154.797 31.0898 155.016 30.6055C155.242 30.1133 155.539 29.6953 155.906 29.3516C156.273 29 156.707 28.6875 157.207 28.4141C157.715 28.1328 158.23 27.9062 158.754 27.7344C159.277 27.5625 159.832 27.4219 160.418 27.3125L160.348 26.1992L162.691 26.0586L163.066 32.375C163.152 33.8828 163.359 34.8398 163.688 35.2461C164.086 35.7148 164.84 35.9492 165.949 35.9492ZM168.996 26.1172L170.777 24.3359L172.559 26.1172L170.777 27.8984L168.996 26.1172ZM165.117 26.1172L166.898 24.3359L168.68 26.1172L166.898 27.8984L165.117 26.1172ZM165.961 35.9492C167.156 35.9492 167.992 35.7109 168.469 35.2344C169.016 34.6875 169.289 33.5898 169.289 31.9414V31.0391H171.633V31.9414C171.633 33.5352 171.891 34.6172 172.406 35.1875C172.875 35.6953 173.723 35.9492 174.949 35.9492V38.293C172.973 38.293 171.477 37.6992 170.461 36.5117C169.492 37.6992 167.992 38.293 165.961 38.293C165.641 38.293 165.367 38.1797 165.141 37.9531C164.906 37.7188 164.789 37.4414 164.789 37.1211C164.789 36.8008 164.906 36.5273 165.141 36.3008C165.367 36.0664 165.641 35.9492 165.961 35.9492ZM174.961 35.9492C175.656 35.9492 176.215 35.8867 176.637 35.7617C177.066 35.6367 177.402 35.4258 177.645 35.1289C178.074 34.5977 178.289 33.5352 178.289 31.9414V31.0391H180.633V32.9023C180.633 34.0977 180.852 34.9531 181.289 35.4688C181.562 35.7891 181.922 35.9492 182.367 35.9492C182.812 35.9492 183.172 35.7891 183.445 35.4688C183.883 34.9531 184.102 34.0977 184.102 32.9023V31.0391H186.445V32.9023C186.445 34.0977 186.664 34.9531 187.102 35.4688C187.375 35.7891 187.734 35.9492 188.18 35.9492C188.711 35.9492 189.102 35.7656 189.352 35.3984C189.602 35.0469 189.727 34.5742 189.727 33.9805C189.727 33.7461 189.703 33.4766 189.656 33.1719L189.152 29.9023L191.473 29.5508L191.977 32.8203C192.039 33.2188 192.07 33.6055 192.07 33.9805C192.07 35.1523 191.75 36.1367 191.109 36.9336C190.367 37.8398 189.391 38.293 188.18 38.293C187.602 38.293 187.059 38.1719 186.551 37.9297C186.043 37.6797 185.617 37.3477 185.273 36.9336C184.93 37.3477 184.504 37.6797 183.996 37.9297C183.488 38.1719 182.945 38.293 182.367 38.293C181.711 38.293 181.109 38.1445 180.562 37.8477C180.023 37.5508 179.586 37.1523 179.25 36.6523C178.305 37.7461 176.875 38.293 174.961 38.293C174.641 38.293 174.367 38.1797 174.141 37.9531C173.906 37.7188 173.789 37.4414 173.789 37.1211C173.789 36.8008 173.906 36.5273 174.141 36.3008C174.367 36.0664 174.641 35.9492 174.961 35.9492ZM198.797 27.125C200.195 28.2969 201.25 29.457 201.961 30.6055C202.68 31.7461 203.039 32.9336 203.039 34.168C203.039 34.7852 202.914 35.3398 202.664 35.832C202.414 36.3242 202.09 36.7227 201.691 37.0273C201.301 37.3242 200.836 37.5703 200.297 37.7656C199.766 37.9609 199.238 38.0977 198.715 38.1758C198.199 38.2539 197.664 38.293 197.109 38.293C196.078 38.293 195.07 38.1602 194.086 37.8945L194.66 35.6445C195.488 35.8477 196.305 35.9492 197.109 35.9492C198.305 35.9492 199.199 35.7852 199.793 35.457C200.395 35.1211 200.695 34.6914 200.695 34.168C200.695 32.5586 199.562 30.8047 197.297 28.9062L198.797 27.125Z" fill="#DE3800"/>
</svg>
