<svg width="26" height="27" viewBox="0 0 26 27" fill="none" xmlns="http://www.w3.org/2000/svg">
<path d="M19.7058 19.7292H8.16829C7.09579 19.7292 6.06662 19.2742 5.34078 18.4833C4.61495 17.6925 4.24663 16.6308 4.33329 15.5583L5.23246 4.76833C5.26496 4.4325 5.14579 4.1075 4.91829 3.85834C4.69079 3.60917 4.37662 3.47916 4.04079 3.47916H2.16663C1.72246 3.47916 1.35413 3.11083 1.35413 2.66666C1.35413 2.2225 1.72246 1.85416 2.16663 1.85416H4.05163C4.84247 1.85416 5.58995 2.18999 6.12079 2.76416C6.41329 3.08916 6.62995 3.46834 6.74912 3.89084H20.28C21.3741 3.89084 22.3816 4.32416 23.1183 5.10416C23.8441 5.895 24.2125 6.92417 24.1258 8.01833L23.5408 16.1433C23.4216 18.1258 21.6883 19.7292 19.7058 19.7292ZM6.80329 5.50499L5.95829 15.6883C5.90413 16.3167 6.10996 16.9125 6.53246 17.3783C6.95496 17.8442 7.53995 18.0933 8.16829 18.0933H19.7058C20.8325 18.0933 21.8508 17.14 21.9375 16.0133L22.5225 7.88834C22.5658 7.24917 22.36 6.64251 21.9375 6.19834C21.515 5.74334 20.93 5.49415 20.2908 5.49415H6.80329V5.50499Z" fill="#363636"/>
<path d="M17.6042 25.1458C16.4125 25.1458 15.4375 24.1708 15.4375 22.9792C15.4375 21.7875 16.4125 20.8125 17.6042 20.8125C18.7958 20.8125 19.7708 21.7875 19.7708 22.9792C19.7708 24.1708 18.7958 25.1458 17.6042 25.1458ZM17.6042 22.4375C17.3008 22.4375 17.0625 22.6758 17.0625 22.9792C17.0625 23.2825 17.3008 23.5208 17.6042 23.5208C17.9075 23.5208 18.1458 23.2825 18.1458 22.9792C18.1458 22.6758 17.9075 22.4375 17.6042 22.4375Z" fill="#363636"/>
<path d="M8.93754 25.1458C7.74587 25.1458 6.77087 24.1708 6.77087 22.9792C6.77087 21.7875 7.74587 20.8125 8.93754 20.8125C10.1292 20.8125 11.1042 21.7875 11.1042 22.9792C11.1042 24.1708 10.1292 25.1458 8.93754 25.1458ZM8.93754 22.4375C8.63421 22.4375 8.39587 22.6758 8.39587 22.9792C8.39587 23.2825 8.63421 23.5208 8.93754 23.5208C9.24087 23.5208 9.47921 23.2825 9.47921 22.9792C9.47921 22.6758 9.24087 22.4375 8.93754 22.4375Z" fill="#363636"/>
<path d="M22.75 9.97916H9.75C9.30583 9.97916 8.9375 9.61083 8.9375 9.16666C8.9375 8.7225 9.30583 8.35416 9.75 8.35416H22.75C23.1942 8.35416 23.5625 8.7225 23.5625 9.16666C23.5625 9.61083 23.1942 9.97916 22.75 9.97916Z" fill="#363636"/>
</svg>
