<svg width="80" height="80" viewBox="0 0 80 80" fill="none" xmlns="http://www.w3.org/2000/svg">
<path d="M0 25.6C0 16.6392 0 12.1587 1.7439 8.73615C3.27787 5.72556 5.72556 3.27787 8.73615 1.7439C12.1587 0 16.6392 0 25.6 0H54.4C63.3608 0 67.8413 0 71.2638 1.7439C74.2744 3.27787 76.7221 5.72556 78.2561 8.73615C80 12.1587 80 16.6392 80 25.6V54.4C80 63.3608 80 67.8413 78.2561 71.2638C76.7221 74.2744 74.2744 76.7221 71.2638 78.2561C67.8413 80 63.3608 80 54.4 80H25.6C16.6392 80 12.1587 80 8.73615 78.2561C5.72556 76.7221 3.27787 74.2744 1.7439 71.2638C0 67.8413 0 63.3608 0 54.4V25.6Z" fill="#1235AA"/>
<path d="M52 20H28C24.68 20 22 22.66 22 25.94V47.76C22 51.04 24.68 53.7 28 53.7H29.52C31.12 53.7 32.64 54.32 33.76 55.44L37.18 58.82C38.74 60.36 41.28 60.36 42.84 58.82L46.26 55.44C47.38 54.32 48.92 53.7 50.5 53.7H52C55.32 53.7 58 51.04 58 47.76V25.94C58 22.66 55.32 20 52 20ZM36.76 42.02C37.58 42.02 38.26 42.7 38.26 43.52C38.26 44.34 37.58 45.02 36.76 45.02H31.4C30.52 45.02 29.7 44.6 29.18 43.88C28.68 43.2 28.56 42.36 28.8 41.56C29.5 39.42 31.22 38.26 32.74 37.22C34.34 36.14 35.24 35.46 35.24 34.3C35.24 33.26 34.4 32.42 33.36 32.42C32.32 32.42 31.5 33.28 31.5 34.32C31.5 35.14 30.82 35.82 30 35.82C29.18 35.82 28.5 35.14 28.5 34.32C28.5 31.64 30.68 29.44 33.38 29.44C36.08 29.44 38.26 31.62 38.26 34.32C38.26 37.14 36.14 38.58 34.44 39.74C33.38 40.46 32.38 41.14 31.88 42.04H36.76V42.02ZM50 42.16H49.58V43.54C49.58 44.36 48.9 45.04 48.08 45.04C47.26 45.04 46.58 44.36 46.58 43.54V42.16H42.66C42.66 42.16 42.66 42.16 42.64 42.16C41.66 42.16 40.76 41.64 40.26 40.8C39.76 39.94 39.76 38.88 40.26 38.04C41.62 35.7 43.2 33.04 44.64 30.72C45.28 29.7 46.5 29.24 47.64 29.56C48.78 29.9 49.58 30.94 49.56 32.14V39.18H50C50.82 39.18 51.5 39.86 51.5 40.68C51.5 41.5 50.82 42.16 50 42.16Z" fill="#FAFAFA"/>
<path d="M46.5801 39.16V33.28C45.4001 35.2 44.1801 37.26 43.0801 39.14H46.5801V39.16Z" fill="#FAFAFA"/>
</svg>
