<svg width="81" height="80" viewBox="0 0 81 80" fill="none" xmlns="http://www.w3.org/2000/svg">
<path d="M0.5 25.6C0.5 16.6392 0.5 12.1587 2.2439 8.73615C3.77787 5.72556 6.22556 3.27787 9.23615 1.7439C12.6587 0 17.1392 0 26.1 0H54.9C63.8608 0 68.3413 0 71.7638 1.7439C74.7744 3.27787 77.2221 5.72556 78.7561 8.73615C80.5 12.1587 80.5 16.6392 80.5 25.6V54.4C80.5 63.3608 80.5 67.8413 78.7561 71.2638C77.2221 74.2744 74.7744 76.7221 71.7638 78.2561C68.3413 80 63.8608 80 54.9 80H26.1C17.1392 80 12.6587 80 9.23615 78.2561C6.22556 76.7221 3.77787 74.2744 2.2439 71.2638C0.5 67.8413 0.5 63.3608 0.5 54.4V25.6Z" fill="#1235AA"/>
<path d="M20.5 38.92V48.92C20.5 53.5 24.2 57.2 28.78 57.2H52.2C56.78 57.2 60.5 53.48 60.5 48.9V38.92C60.5 37.58 59.42 36.5 58.08 36.5H22.92C21.58 36.5 20.5 37.58 20.5 38.92ZM32.5 50.5H28.5C27.68 50.5 27 49.82 27 49C27 48.18 27.68 47.5 28.5 47.5H32.5C33.32 47.5 34 48.18 34 49C34 49.82 33.32 50.5 32.5 50.5ZM45.5 50.5H37.5C36.68 50.5 36 49.82 36 49C36 48.18 36.68 47.5 37.5 47.5H45.5C46.32 47.5 47 48.18 47 49C47 49.82 46.32 50.5 45.5 50.5Z" fill="#FAFAFA"/>
<path d="M43.5 25.22V31.08C43.5 32.42 42.42 33.5 41.08 33.5H22.92C21.56 33.5 20.5 32.38 20.5 31.04C20.52 28.78 21.42 26.72 22.92 25.22C24.42 23.72 26.5 22.8 28.78 22.8H41.08C42.42 22.8 43.5 23.88 43.5 25.22Z" fill="#FAFAFA"/>
<path d="M56.44 20H50.56C48.02 20 46.5 21.52 46.5 24.06V29.94C46.5 32.48 48.02 34 50.56 34H56.44C58.98 34 60.5 32.48 60.5 29.94V24.06C60.5 21.52 58.98 20 56.44 20ZM57.76 24.9L53.02 30.44C52.84 30.66 52.56 30.8 52.28 30.8C52.26 30.8 52.26 30.8 52.24 30.8C51.96 30.8 51.7 30.7 51.5 30.5L49.3 28.34C48.9 27.94 48.9 27.28 49.3 26.88C49.7 26.48 50.36 26.46 50.76 26.88L52.16 28.26L56.16 23.58C56.54 23.14 57.18 23.1 57.62 23.46C58.08 23.82 58.12 24.48 57.76 24.9Z" fill="#FAFAFA"/>
</svg>
