<svg width="80" height="80" viewBox="0 0 80 80" fill="none" xmlns="http://www.w3.org/2000/svg">
<path d="M0 25.6C0 16.6392 0 12.1587 1.7439 8.73615C3.27787 5.72556 5.72556 3.27787 8.73615 1.7439C12.1587 0 16.6392 0 25.6 0H54.4C63.3608 0 67.8413 0 71.2638 1.7439C74.2744 3.27787 76.7221 5.72556 78.2561 8.73615C80 12.1587 80 16.6392 80 25.6V54.4C80 63.3608 80 67.8413 78.2561 71.2638C76.7221 74.2744 74.2744 76.7221 71.2638 78.2561C67.8413 80 63.3608 80 54.4 80H25.6C16.6392 80 12.1587 80 8.73615 78.2561C5.72556 76.7221 3.27787 74.2744 1.7439 71.2638C0 67.8413 0 63.3608 0 54.4V25.6Z" fill="#1235AA"/>
<path d="M59.1198 37.48L56.3998 34.32C55.8798 33.72 55.4598 32.6 55.4598 31.8V28.4C55.4598 26.28 53.7198 24.54 51.5998 24.54H48.1998C47.4198 24.54 46.2798 24.12 45.6798 23.6L42.5198 20.88C41.1398 19.7 38.8798 19.7 37.4798 20.88L34.3398 23.62C33.7398 24.12 32.5998 24.54 31.8198 24.54H28.3598C26.2398 24.54 24.4998 26.28 24.4998 28.4V31.82C24.4998 32.6 24.0798 33.72 23.5798 34.32L20.8798 37.5C19.7198 38.88 19.7198 41.12 20.8798 42.5L23.5798 45.68C24.0798 46.28 24.4998 47.4 24.4998 48.18V51.6C24.4998 53.72 26.2398 55.46 28.3598 55.46H31.8198C32.5998 55.46 33.7398 55.88 34.3398 56.4L37.4998 59.12C38.8798 60.3 41.1398 60.3 42.5398 59.12L45.6998 56.4C46.2998 55.88 47.4198 55.46 48.2198 55.46H51.6198C53.7398 55.46 55.4798 53.72 55.4798 51.6V48.2C55.4798 47.42 55.8998 46.28 56.4198 45.68L59.1398 42.52C60.2998 41.14 60.2998 38.86 59.1198 37.48ZM48.3198 36.22L38.6598 45.88C38.3798 46.16 37.9998 46.32 37.5998 46.32C37.1998 46.32 36.8198 46.16 36.5398 45.88L31.6998 41.04C31.1198 40.46 31.1198 39.5 31.6998 38.92C32.2798 38.34 33.2398 38.34 33.8198 38.92L37.5998 42.7L46.1998 34.1C46.7798 33.52 47.7398 33.52 48.3198 34.1C48.8998 34.68 48.8998 35.64 48.3198 36.22Z" fill="#FAFAFA"/>
</svg>
