<svg width="80" height="80" viewBox="0 0 80 80" fill="none" xmlns="http://www.w3.org/2000/svg">
<path d="M0 25.6C0 16.6392 0 12.1587 1.7439 8.73615C3.27787 5.72556 5.72556 3.27787 8.73615 1.7439C12.1587 0 16.6392 0 25.6 0H54.4C63.3608 0 67.8413 0 71.2638 1.7439C74.2744 3.27787 76.7221 5.72556 78.2561 8.73615C80 12.1587 80 16.6392 80 25.6V54.4C80 63.3608 80 67.8413 78.2561 71.2638C76.7221 74.2744 74.2744 76.7221 71.2638 78.2561C67.8413 80 63.3608 80 54.4 80H25.6C16.6392 80 12.1587 80 8.73615 78.2561C5.72556 76.7221 3.27787 74.2744 1.7439 71.2638C0 67.8413 0 63.3608 0 54.4V25.6Z" fill="#1235AA"/>
<path d="M59 47C59.56 47 60 47.44 60 48V50C60 53.32 57.32 56 54 56C54 52.7 51.3 50 48 50C44.7 50 42 52.7 42 56H38C38 52.7 35.3 50 32 50C28.7 50 26 52.7 26 56C22.68 56 20 53.32 20 50V46C20 44.9 20.9 44 22 44H41C43.76 44 46 41.76 46 39V28C46 26.9 46.9 26 48 26H49.68C51.12 26 52.44 26.78 53.16 28.02L54.44 30.26C54.62 30.58 54.38 31 54 31C51.24 31 49 33.24 49 36V42C49 44.76 51.24 47 54 47H59Z" fill="#FAFAFA"/>
<path d="M32 60C34.2091 60 36 58.2091 36 56C36 53.7909 34.2091 52 32 52C29.7909 52 28 53.7909 28 56C28 58.2091 29.7909 60 32 60Z" fill="#FAFAFA"/>
<path d="M48 60C50.2091 60 52 58.2091 52 56C52 53.7909 50.2091 52 48 52C45.7909 52 44 53.7909 44 56C44 58.2091 45.7909 60 48 60Z" fill="#FAFAFA"/>
<path d="M60 41.06V44H54C52.9 44 52 43.1 52 42V36C52 34.9 52.9 34 54 34H56.58L59.48 39.08C59.82 39.68 60 40.36 60 41.06Z" fill="#FAFAFA"/>
<path d="M42.16 20H27.38C23.8 20 20.8 22.56 20.14 25.96H28.88C29.64 25.96 30.24 26.58 30.24 27.34C30.24 28.1 29.64 28.7 28.88 28.7H20V31.46H25.2C25.96 31.46 26.58 32.08 26.58 32.84C26.58 33.6 25.96 34.2 25.2 34.2H20V36.96H21.54C22.3 36.96 22.92 37.58 22.92 38.34C22.92 39.1 22.3 39.7 21.54 39.7H20V40.16C20 41.26 20.9 42.16 22 42.16H40.3C42.34 42.16 44 40.5 44 38.46V21.84C44 20.82 43.18 20 42.16 20Z" fill="#FAFAFA"/>
<path d="M20.14 25.96H19.84H17.88C17.12 25.96 16.5 26.58 16.5 27.34C16.5 28.1 17.12 28.7 17.88 28.7H19.7H20V27.38C20 26.9 20.06 26.42 20.14 25.96Z" fill="#FAFAFA"/>
<path d="M19.7 31.46H17.88C17.12 31.46 16.5 32.08 16.5 32.84C16.5 33.6 17.12 34.2 17.88 34.2H19.7H20V31.46H19.7Z" fill="#FAFAFA"/>
<path d="M19.7 36.96H17.88C17.12 36.96 16.5 37.58 16.5 38.34C16.5 39.1 17.12 39.7 17.88 39.7H19.7H20V36.96H19.7Z" fill="#FAFAFA"/>
</svg>
