<svg width="24" height="25" viewBox="0 0 24 25" fill="none" xmlns="http://www.w3.org/2000/svg">
<path d="M1.74997 15.7605V9.24047C1.74997 4.33047 3.84997 2.23047 8.75997 2.23047H8.88997C13.33 2.23047 15.47 3.98047 15.84 7.90047C15.87 8.30047 15.57 8.68047 15.16 8.72047C14.75 8.76047 14.38 8.46047 14.34 8.04047C14.05 4.90047 12.57 3.73047 8.87997 3.73047H8.74997C4.67997 3.73047 3.23997 5.17047 3.23997 9.24047V15.7605C3.23997 19.8305 4.67997 21.2705 8.74997 21.2705H8.87997C12.59 21.2705 14.07 20.0805 14.34 16.8805C14.38 16.4705 14.74 16.1605 15.15 16.2005C15.56 16.2405 15.87 16.5905 15.83 17.0105C15.49 20.9905 13.34 22.7705 8.86997 22.7705H8.73997C3.84997 22.7705 1.74997 20.6705 1.74997 15.7605Z" fill="#DE3800"/>
<path d="M8.24988 12.5C8.24988 12.09 8.58988 11.75 8.99988 11.75H20.3799C20.7899 11.75 21.1299 12.09 21.1299 12.5C21.1299 12.91 20.7899 13.25 20.3799 13.25H8.99988C8.58988 13.25 8.24988 12.91 8.24988 12.5Z" fill="#DE3800"/>
<path d="M17.4001 15.8498C17.4001 15.6598 17.4701 15.4698 17.6201 15.3198L20.4401 12.4998L17.6201 9.67984C17.3301 9.38984 17.3301 8.90984 17.6201 8.61984C17.9101 8.32984 18.3901 8.32984 18.6801 8.61984L22.0301 11.9698C22.3201 12.2598 22.3201 12.7398 22.0301 13.0298L18.6801 16.3798C18.3901 16.6698 17.9101 16.6698 17.6201 16.3798C17.4701 16.2398 17.4001 16.0398 17.4001 15.8498Z" fill="#DE3800"/>
</svg>
