<svg width="25" height="24" viewBox="0 0 25 24" fill="none" xmlns="http://www.w3.org/2000/svg">
<path d="M11.7355 16.9506C11.5455 16.9506 11.3555 16.8806 11.2055 16.7306L9.70554 15.2306C9.41554 14.9406 9.41554 14.4606 9.70554 14.1706C9.99554 13.8806 10.4755 13.8806 10.7655 14.1706L11.7355 15.1406L15.2055 11.6706C15.4955 11.3806 15.9755 11.3806 16.2655 11.6706C16.5555 11.9606 16.5555 12.4406 16.2655 12.7306L12.2655 16.7306C12.1255 16.8806 11.9255 16.9506 11.7355 16.9506Z" fill="#194BF0"/>
<path d="M14.9255 6.75H10.9255C9.96554 6.75 8.17554 6.75 8.17554 4C8.17554 1.25 9.96554 1.25 10.9255 1.25H14.9255C15.8855 1.25 17.6755 1.25 17.6755 4C17.6755 4.96 17.6755 6.75 14.9255 6.75ZM10.9255 2.75C9.93554 2.75 9.67554 2.75 9.67554 4C9.67554 5.25 9.93554 5.25 10.9255 5.25H14.9255C16.1755 5.25 16.1755 4.99 16.1755 4C16.1755 2.75 15.9155 2.75 14.9255 2.75H10.9255Z" fill="#194BF0"/>
<path d="M15.9255 22.7504H9.92554C4.30554 22.7504 3.17554 20.1704 3.17554 16.0004V10.0004C3.17554 5.44042 4.82554 3.49042 8.88554 3.28042C9.29554 3.26042 9.65554 3.57042 9.67554 3.99042C9.69554 4.41042 9.37554 4.75042 8.96554 4.77042C6.12554 4.93042 4.67554 5.78042 4.67554 10.0004V16.0004C4.67554 19.7004 5.40554 21.2504 9.92554 21.2504H15.9255C20.4455 21.2504 21.1755 19.7004 21.1755 16.0004V10.0004C21.1755 5.78042 19.7255 4.93042 16.8855 4.77042C16.4755 4.75042 16.1555 4.39042 16.1755 3.98042C16.1955 3.57042 16.5455 3.25042 16.9655 3.27042C21.0255 3.49042 22.6755 5.44042 22.6755 9.99042V15.9904C22.6755 20.1704 21.5455 22.7504 15.9255 22.7504Z" fill="#194BF0"/>
</svg>
