<svg width="25" height="24" viewBox="0 0 25 24" fill="none" xmlns="http://www.w3.org/2000/svg">
<path d="M22.9255 9.75C22.5155 9.75 22.1755 9.41 22.1755 9V7C22.1755 4.42 20.5055 2.75 17.9255 2.75H7.92554C5.34554 2.75 3.67554 4.42 3.67554 7V9C3.67554 9.41 3.33554 9.75 2.92554 9.75C2.51554 9.75 2.17554 9.41 2.17554 9V7C2.17554 3.56 4.48554 1.25 7.92554 1.25H17.9255C21.3655 1.25 23.6755 3.56 23.6755 7V9C23.6755 9.41 23.3355 9.75 22.9255 9.75Z" fill="#194BF0"/>
<path d="M17.9255 22.75H7.92554C4.48554 22.75 2.17554 20.44 2.17554 17V15C2.17554 14.59 2.51554 14.25 2.92554 14.25C3.33554 14.25 3.67554 14.59 3.67554 15V17C3.67554 19.58 5.34554 21.25 7.92554 21.25H17.9255C20.5055 21.25 22.1755 19.58 22.1755 17V15C22.1755 14.59 22.5155 14.25 22.9255 14.25C23.3355 14.25 23.6755 14.59 23.6755 15V17C23.6755 20.44 21.3655 22.75 17.9255 22.75Z" fill="#194BF0"/>
<path d="M12.9256 13.079C12.7956 13.079 12.6656 13.0489 12.5456 12.9789L7.24565 9.91894C6.88565 9.70894 6.76565 9.24897 6.97565 8.88897C7.18565 8.52897 7.64565 8.40895 7.99565 8.61895L12.9156 11.4689L17.8056 8.63897C18.1656 8.42897 18.6256 8.55893 18.8256 8.90893C19.0356 9.26893 18.9056 9.72896 18.5556 9.93896L13.2956 12.9789C13.1856 13.0389 13.0556 13.079 12.9256 13.079Z" fill="#194BF0"/>
<path d="M12.9255 18.5201C12.5155 18.5201 12.1755 18.1801 12.1755 17.7701V12.3301C12.1755 11.9201 12.5155 11.5801 12.9255 11.5801C13.3355 11.5801 13.6755 11.9201 13.6755 12.3301V17.7701C13.6755 18.1801 13.3355 18.5201 12.9255 18.5201Z" fill="#194BF0"/>
<path d="M12.9258 18.7508C12.3458 18.7508 11.7758 18.6208 11.3158 18.3708L8.11577 16.5908C7.15577 16.0608 6.41577 14.7908 6.41577 13.6908V10.3008C6.41577 9.21077 7.16577 7.94081 8.11577 7.40081L11.3158 5.62078C12.2358 5.11078 13.6158 5.11078 14.5358 5.62078L17.7358 7.40081C18.6958 7.93081 19.4358 9.20077 19.4358 10.3008V13.6908C19.4358 14.7808 18.6858 16.0508 17.7358 16.5908L14.5358 18.3708C14.0758 18.6208 13.5058 18.7508 12.9258 18.7508ZM12.0458 6.94079L8.84576 8.72076C8.35576 8.99076 7.91577 9.75077 7.91577 10.3008V13.6908C7.91577 14.2508 8.35576 15.0008 8.84576 15.2708L12.0458 17.0508C12.5058 17.3008 13.3458 17.3008 13.8058 17.0508L17.0058 15.2708C17.4958 15.0008 17.9358 14.2408 17.9358 13.6908V10.3008C17.9358 9.74077 17.4958 8.99076 17.0058 8.72076L13.8058 6.94079C13.3458 6.69079 12.5058 6.69079 12.0458 6.94079Z" fill="#194BF0"/>
</svg>
