<svg width="25" height="24" viewBox="0 0 25 24" fill="none" xmlns="http://www.w3.org/2000/svg">
<path d="M12.9254 13.3008C12.7954 13.3008 12.6654 13.2709 12.5454 13.2009L3.71539 8.09088C3.35539 7.88088 3.23537 7.42085 3.44537 7.06085C3.65537 6.70085 4.10537 6.58083 4.47537 6.79083L12.9254 11.6808L21.3254 6.82086C21.6854 6.61086 22.1454 6.74088 22.3554 7.09088C22.5654 7.45088 22.4354 7.91085 22.0854 8.12085L13.3154 13.2009C13.1854 13.2609 13.0554 13.3008 12.9254 13.3008Z" fill="#194BF0"/>
<path d="M12.9255 22.3591C12.5155 22.3591 12.1755 22.0191 12.1755 21.6091V12.5391C12.1755 12.1291 12.5155 11.7891 12.9255 11.7891C13.3355 11.7891 13.6755 12.1291 13.6755 12.5391V21.6091C13.6755 22.0191 13.3355 22.3591 12.9255 22.3591Z" fill="#194BF0"/>
<path d="M12.9254 22.7502C12.0154 22.7502 11.1454 22.5402 10.4854 22.1702L5.14542 19.2103C3.69542 18.4103 2.55542 16.4802 2.55542 14.8202V9.16021C2.55542 7.50021 3.69542 5.58026 5.14542 4.77026L10.4854 1.81023C11.8454 1.05023 13.9854 1.05023 15.3554 1.81023L20.6954 4.77026C22.1454 5.57026 23.2854 7.50021 23.2854 9.16021V12.8202C23.2854 13.2302 22.9454 13.5702 22.5354 13.5702C22.1254 13.5702 21.7854 13.2302 21.7854 12.8202V9.16021C21.7854 8.06021 20.9354 6.62026 19.9754 6.09026L14.6354 3.13024C13.7254 2.62024 12.1354 2.62024 11.2254 3.13024L5.88541 6.09026C4.91541 6.63026 4.07541 8.06021 4.07541 9.16021V14.8202C4.07541 15.9202 4.92541 17.3603 5.88541 17.8903L11.2254 20.8502C12.1054 21.3402 13.7654 21.3402 14.6354 20.8502C14.9954 20.6502 15.4554 20.7803 15.6554 21.1403C15.8554 21.5003 15.7254 21.9602 15.3654 22.1602C14.7054 22.5402 13.8354 22.7502 12.9254 22.7502Z" fill="#194BF0"/>
<path d="M20.1255 22.15C17.9455 22.15 16.1755 20.38 16.1755 18.2C16.1755 16.02 17.9455 14.25 20.1255 14.25C22.3055 14.25 24.0755 16.02 24.0755 18.2C24.0755 20.38 22.3055 22.15 20.1255 22.15ZM20.1255 15.75C18.7755 15.75 17.6755 16.85 17.6755 18.2C17.6755 19.55 18.7755 20.65 20.1255 20.65C21.4755 20.65 22.5755 19.55 22.5755 18.2C22.5755 16.85 21.4755 15.75 20.1255 15.75Z" fill="#194BF0"/>
<path d="M23.9255 22.7495C23.7355 22.7495 23.5455 22.6795 23.3955 22.5295L22.3955 21.5295C22.1055 21.2395 22.1055 20.7595 22.3955 20.4695C22.6855 20.1795 23.1655 20.1795 23.4555 20.4695L24.4555 21.4695C24.7455 21.7595 24.7455 22.2395 24.4555 22.5295C24.3055 22.6795 24.1155 22.7495 23.9255 22.7495Z" fill="#194BF0"/>
</svg>
