<svg width="46" height="45" viewBox="0 0 46 45" fill="none" xmlns="http://www.w3.org/2000/svg">
<path opacity="0.1" d="M44.375 22.5C44.375 34.3051 34.8051 43.875 23 43.875C11.1949 43.875 1.625 34.3051 1.625 22.5C1.625 10.6949 11.1949 1.125 23 1.125C34.8051 1.125 44.375 10.6949 44.375 22.5Z" stroke="#363636" stroke-width="2.25"/>
<path fill-rule="evenodd" clip-rule="evenodd" d="M22.3078 23.5863C21.4134 23.5863 19.217 23.5891 19.217 23.5891V21.4109H24.7075C25.09 24.0465 23.9364 28 19.217 28C16.0596 28 13.5 25.5375 13.5 22.5C13.5 19.4624 16.0596 17 19.217 17C20.6985 17 22.0484 17.5422 23.0641 18.4315C22.277 19.1466 22.0247 19.4191 21.8103 19.6507C21.6988 19.7712 21.5976 19.8806 21.4366 20.0354C20.8492 19.568 20.2087 19.2327 19.217 19.2327C17.3413 19.2327 15.8774 20.6955 15.8774 22.5C15.8774 24.3045 17.3413 25.7673 19.217 25.7673C21.0704 25.7673 21.8235 24.9984 22.3078 23.5863ZM29.5189 19.6139V21.5198H31.5V22.8812H29.5189V24.8416H28.1038V22.8812H26.066V21.5198H28.1038V19.6139H29.5189Z" fill="#363636"/>
</svg>
