<svg width="32" height="32" viewBox="0 0 32 32" fill="none" xmlns="http://www.w3.org/2000/svg">
<path d="M22.19 21.75H11.54C10.55 21.75 9.59999 21.33 8.92999 20.6C8.25999 19.87 7.92 18.89 8 17.9L8.83 7.94C8.86 7.63 8.74999 7.33001 8.53999 7.10001C8.32999 6.87001 8.04 6.75 7.73 6.75H6C5.59 6.75 5.25 6.41 5.25 6C5.25 5.59 5.59 5.25 6 5.25H7.74001C8.47001 5.25 9.15999 5.56 9.64999 6.09C9.91999 6.39 10.12 6.74 10.23 7.13H22.72C23.73 7.13 24.66 7.53 25.34 8.25C26.01 8.98 26.35 9.93 26.27 10.94L25.73 18.44C25.62 20.27 24.02 21.75 22.19 21.75ZM10.28 8.62L9.5 18.02C9.45 18.6 9.64 19.15 10.03 19.58C10.42 20.01 10.96 20.24 11.54 20.24H22.19C23.23 20.24 24.17 19.36 24.25 18.32L24.79 10.82C24.83 10.23 24.64 9.67001 24.25 9.26001C23.86 8.84001 23.32 8.60999 22.73 8.60999H10.28V8.62Z" fill="#0E2984"/>
<path d="M20.25 26.75C19.15 26.75 18.25 25.85 18.25 24.75C18.25 23.65 19.15 22.75 20.25 22.75C21.35 22.75 22.25 23.65 22.25 24.75C22.25 25.85 21.35 26.75 20.25 26.75ZM20.25 24.25C19.97 24.25 19.75 24.47 19.75 24.75C19.75 25.03 19.97 25.25 20.25 25.25C20.53 25.25 20.75 25.03 20.75 24.75C20.75 24.47 20.53 24.25 20.25 24.25Z" fill="#0E2984"/>
<path d="M12.25 26.75C11.15 26.75 10.25 25.85 10.25 24.75C10.25 23.65 11.15 22.75 12.25 22.75C13.35 22.75 14.25 23.65 14.25 24.75C14.25 25.85 13.35 26.75 12.25 26.75ZM12.25 24.25C11.97 24.25 11.75 24.47 11.75 24.75C11.75 25.03 11.97 25.25 12.25 25.25C12.53 25.25 12.75 25.03 12.75 24.75C12.75 24.47 12.53 24.25 12.25 24.25Z" fill="#0E2984"/>
<path d="M25 12.75H13C12.59 12.75 12.25 12.41 12.25 12C12.25 11.59 12.59 11.25 13 11.25H25C25.41 11.25 25.75 11.59 25.75 12C25.75 12.41 25.41 12.75 25 12.75Z" fill="#0E2984"/>
</svg>
