<svg width="20" height="21" viewBox="0 0 20 21" fill="none" xmlns="http://www.w3.org/2000/svg">
<path fill-rule="evenodd" clip-rule="evenodd" d="M9.99987 0.895508C9.7164 0.895508 9.43884 0.976605 9.19997 1.12923C8.96414 1.2799 8.77573 1.49407 8.65633 1.747L6.38838 6.3257C6.38393 6.3347 6.37965 6.34379 6.37558 6.35297L6.37095 6.3587L6.3641 6.36137C6.3554 6.36233 6.34671 6.36346 6.33805 6.36474L1.34437 7.10454C1.06836 7.13139 0.805162 7.23496 0.584712 7.40382C0.356609 7.57854 0.184064 7.81566 0.0879775 8.08644C-0.00810842 8.35723 -0.0236129 8.65007 0.043343 8.9295C0.11004 9.20783 0.255709 9.46096 0.462804 9.65846L4.1182 13.1853L4.12653 13.1932C4.13174 13.1981 4.13567 13.2042 4.13793 13.211C4.14018 13.2178 4.14071 13.225 4.13945 13.2321L3.2676 18.3344C3.21974 18.6107 3.25004 18.8961 3.35548 19.1559C3.46107 19.4161 3.63758 19.6414 3.86491 19.8063C4.09225 19.971 4.36128 20.0687 4.6414 20.0881C4.92095 20.1076 5.20035 20.0483 5.44793 19.9171L5.44943 19.9163L9.94868 17.5384C9.96481 17.5314 9.98225 17.5277 9.9999 17.5277C10.0175 17.5277 10.035 17.5314 10.0511 17.5384L14.5503 19.9163C14.798 20.0479 15.0786 20.1077 15.3583 20.0881C15.6384 20.0687 15.9074 19.971 16.1349 19.8063C16.3622 19.6414 16.5387 19.4161 16.6443 19.1559C16.7497 18.8961 16.7802 18.6121 16.7324 18.336L16.7322 18.3344L15.8612 13.2367L15.8603 13.2321C15.859 13.225 15.8596 13.2178 15.8619 13.211C15.864 13.2042 15.868 13.1981 15.8732 13.1932L15.8816 13.1853L19.537 9.65842C19.744 9.46092 19.8897 9.20782 19.9564 8.9295C20.0233 8.65007 20.0079 8.35723 19.9117 8.08644C19.8157 7.81566 19.6432 7.57854 19.415 7.40382C19.1946 7.23496 18.9314 7.13139 18.6554 7.10454L13.6617 6.36474C13.653 6.36346 13.6444 6.36233 13.6357 6.36137L13.6288 6.3587L13.6242 6.35297C13.6201 6.34379 13.6158 6.3347 13.6114 6.3257L11.3434 1.74698C11.224 1.49406 11.0356 1.27989 10.7998 1.12923C10.5609 0.976605 10.2833 0.895508 9.99987 0.895508Z" fill="#FDB713"/>
</svg>
