<svg width="1227" height="58" viewBox="0 0 1227 58" fill="none" xmlns="http://www.w3.org/2000/svg">
<path d="M5.66669 29C5.66669 27.5272 4.47278 26.3333 3.00006 26.3333C1.52722 26.3333 0.333374 27.5272 0.333374 29C0.333374 30.4728 1.52722 31.6667 3.00006 31.6667C4.47278 31.6667 5.66669 30.4728 5.66669 29ZM1026 28.5L3.00006 28.5V29.5L1026 29.5V28.5Z" fill="#0E2984"/>
<path d="M1046.24 22.9297V33.418C1046.24 34.3633 1046.38 35 1046.65 35.3281C1046.99 35.7422 1047.82 35.9492 1049.12 35.9492V38.293C1047.24 38.293 1045.85 37.7969 1044.96 36.8047C1044.25 35.9922 1043.89 34.8633 1043.89 33.418V22.9297H1046.24ZM1049.12 35.9492C1049.68 35.9492 1050.09 35.8477 1050.36 35.6445C1050.64 35.4414 1050.92 35.043 1051.21 34.4492C1051.41 34.0273 1051.61 33.5586 1051.79 33.043C1051.97 32.543 1052.19 32.082 1052.45 31.6602C1052.71 31.2383 1053.01 30.8477 1053.36 30.4883C1053.72 30.1211 1054.14 29.8359 1054.63 29.6328C1055.12 29.4219 1055.65 29.3164 1056.21 29.3164C1057.01 29.3164 1057.72 29.5391 1058.36 29.9844C1058.99 30.4297 1059.47 30.9727 1059.8 31.6133C1060.13 32.2539 1060.34 32.9336 1060.43 33.6523C1060.5 34.2227 1060.69 34.707 1061 35.1055C1061.46 35.668 1062.33 35.9492 1063.63 35.9492V38.293C1061.81 38.293 1060.43 37.8398 1059.5 36.9336C1058.76 37.8398 1057.83 38.293 1056.71 38.293C1056.01 38.293 1055.31 38.1289 1054.61 37.8008C1053.91 37.4727 1053.27 37.0508 1052.7 36.5352C1051.84 37.707 1050.64 38.293 1049.12 38.293C1048.8 38.293 1048.53 38.1797 1048.3 37.9531C1048.07 37.7188 1047.95 37.4414 1047.95 37.1211C1047.95 36.8008 1048.07 36.5273 1048.3 36.3008C1048.53 36.0664 1048.8 35.9492 1049.12 35.9492ZM1053.81 34.3203C1054.14 34.7344 1054.61 35.1094 1055.21 35.4453C1055.82 35.7812 1056.32 35.9492 1056.71 35.9492C1057.04 35.9492 1057.36 35.7852 1057.66 35.457C1057.97 35.1289 1058.12 34.7188 1058.12 34.2266C1058.12 33.5469 1057.92 32.9492 1057.51 32.4336C1057.11 31.918 1056.68 31.6602 1056.21 31.6602C1055.27 31.6602 1054.54 32.3906 1054 33.8516L1053.81 34.3203ZM1072.16 23.6562L1073.94 21.875L1075.72 23.6562L1073.94 25.4375L1072.16 23.6562ZM1074.11 26.9844L1075.89 25.2031L1077.67 26.9844L1075.89 28.7656L1074.11 26.9844ZM1070.23 26.9844L1072.01 25.2031L1073.79 26.9844L1072.01 28.7656L1070.23 26.9844ZM1063.63 35.9492C1064.32 35.9492 1064.88 35.8867 1065.3 35.7617C1065.73 35.6367 1066.07 35.4258 1066.31 35.1289C1066.74 34.5977 1066.96 33.5352 1066.96 31.9414V31.0391H1069.3V32.9023C1069.3 34.0977 1069.52 34.9531 1069.96 35.4688C1070.23 35.7891 1070.59 35.9492 1071.04 35.9492C1071.48 35.9492 1071.84 35.7891 1072.11 35.4688C1072.55 34.9531 1072.77 34.0977 1072.77 32.9023V31.0391H1075.11V32.9023C1075.11 34.0977 1075.33 34.9531 1075.77 35.4688C1076.04 35.7891 1076.4 35.9492 1076.85 35.9492C1077.38 35.9492 1077.77 35.7656 1078.02 35.3984C1078.27 35.0469 1078.39 34.5742 1078.39 33.9805C1078.39 33.7461 1078.37 33.4766 1078.32 33.1719L1077.82 29.9023L1080.14 29.5508L1080.64 32.8203C1080.71 33.2188 1080.74 33.6055 1080.74 33.9805C1080.74 35.1523 1080.42 36.1367 1079.78 36.9336C1079.04 37.8398 1078.06 38.293 1076.85 38.293C1076.27 38.293 1075.73 38.1719 1075.22 37.9297C1074.71 37.6797 1074.29 37.3477 1073.94 36.9336C1073.6 37.3477 1073.17 37.6797 1072.66 37.9297C1072.16 38.1719 1071.61 38.293 1071.04 38.293C1070.38 38.293 1069.78 38.1445 1069.23 37.8477C1068.69 37.5508 1068.25 37.1523 1067.92 36.6523C1066.97 37.7461 1065.54 38.293 1063.63 38.293C1063.31 38.293 1063.04 38.1797 1062.81 37.9531C1062.57 37.7188 1062.46 37.4414 1062.46 37.1211C1062.46 36.8008 1062.57 36.5273 1062.81 36.3008C1063.04 36.0664 1063.31 35.9492 1063.63 35.9492ZM1105.22 29.3281L1104.35 31.5078L1103.73 31.2617C1103.06 30.9961 1102.43 30.8633 1101.86 30.8633C1100.93 30.8633 1100.18 31.1211 1099.62 31.6367C1099.05 32.1523 1098.77 32.7617 1098.77 33.4648C1098.77 33.7461 1098.81 33.9883 1098.89 34.1914C1098.97 34.3867 1099.07 34.5508 1099.2 34.6836C1099.33 34.8086 1099.52 34.9141 1099.76 35C1100 35.0859 1100.25 35.1562 1100.5 35.2109C1100.75 35.2578 1101.09 35.3047 1101.49 35.3516C1101.88 35.3984 1102.22 35.457 1102.54 35.5273C1102.85 35.5977 1103.2 35.7188 1103.6 35.8906C1104 36.0625 1104.33 36.2734 1104.6 36.5234C1104.87 36.7734 1105.1 37.1133 1105.29 37.543C1105.48 37.9648 1105.58 38.4531 1105.58 39.0078C1105.58 39.6875 1105.44 40.3164 1105.16 40.8945C1104.89 41.4805 1104.52 41.9688 1104.06 42.3594C1103.61 42.7578 1103.08 43.0977 1102.48 43.3789C1101.88 43.6602 1101.27 43.8633 1100.62 43.9883C1099.98 44.1211 1099.34 44.1875 1098.7 44.1875C1097.82 44.1875 1096.98 44.1055 1096.17 43.9414C1095.37 43.7773 1094.62 43.5234 1093.93 43.1797C1093.25 42.8438 1092.65 42.4336 1092.14 41.9492C1091.64 41.4727 1091.25 40.8984 1090.96 40.2266C1090.68 39.5625 1090.54 38.8398 1090.54 38.0586C1090.54 36.4102 1090.82 34.6953 1091.4 32.9141L1091.53 32.5039L1093.76 33.207L1093.63 33.6172C1093.13 35.1875 1092.88 36.668 1092.88 38.0586C1092.88 39.168 1093.38 40.0742 1094.39 40.7773C1095.4 41.4883 1096.84 41.8438 1098.7 41.8438C1100.02 41.8438 1101.11 41.5625 1101.96 41C1102.81 40.4375 1103.24 39.7734 1103.24 39.0078C1103.24 38.5234 1103.12 38.207 1102.88 38.0586C1102.63 37.9102 1102.08 37.7812 1101.21 37.6719C1100.92 37.6328 1100.66 37.5938 1100.43 37.5547C1100.19 37.5156 1099.9 37.4492 1099.56 37.3555C1099.21 37.2539 1098.91 37.1406 1098.63 37.0156C1098.37 36.8906 1098.09 36.7188 1097.8 36.5C1097.51 36.2812 1097.27 36.0391 1097.09 35.7734C1096.9 35.5 1096.74 35.168 1096.62 34.7773C1096.49 34.3789 1096.43 33.9414 1096.43 33.4648C1096.43 32.0664 1096.95 30.8945 1098 29.9492C1099.05 28.9961 1100.34 28.5195 1101.86 28.5195C1102.72 28.5195 1103.64 28.707 1104.6 29.082L1105.22 29.3281ZM1110.71 38.2578H1108.37V22.9531H1110.71V38.2578ZM1114.38 31.7422L1116.56 30.875C1117.09 32.1953 1117.45 33.4062 1117.64 34.5078C1117.79 34.8906 1117.95 35.1758 1118.11 35.3633C1118.27 35.5508 1118.52 35.6953 1118.85 35.7969C1119.18 35.8984 1119.63 35.9492 1120.21 35.9492V38.293C1119.25 38.293 1118.41 38.1328 1117.71 37.8125C1117.48 39.2969 1116.85 40.5938 1115.84 41.7031C1114.83 42.8125 1113.45 43.6875 1111.7 44.3281L1110.9 42.125C1112.54 41.5312 1113.7 40.7695 1114.41 39.8398C1115.12 38.918 1115.47 37.793 1115.47 36.4648C1115.47 35.1289 1115.11 33.5547 1114.38 31.7422ZM1119.97 42.5117L1121.75 40.7305L1123.54 42.5117L1121.75 44.293L1119.97 42.5117ZM1120.21 35.9492C1120.84 35.9492 1121.39 35.875 1121.85 35.7266C1122.31 35.5781 1122.61 35.418 1122.76 35.2461C1123.16 34.7695 1123.36 33.957 1123.36 32.8086C1123.36 31.7852 1123.12 30.5469 1122.64 29.0938L1124.87 28.3672C1125.43 30.0312 1125.7 31.5117 1125.7 32.8086C1125.7 34.5273 1125.32 35.8398 1124.57 36.7461C1123.7 37.7773 1122.25 38.293 1120.21 38.293C1119.89 38.293 1119.61 38.1797 1119.39 37.9531C1119.15 37.7188 1119.04 37.4414 1119.04 37.1211C1119.04 36.8008 1119.15 36.5273 1119.39 36.3008C1119.61 36.0664 1119.89 35.9492 1120.21 35.9492Z" fill="#363636"/>
<path d="M1150.2 29.3281L1149.33 31.5078L1148.71 31.2617C1148.04 30.9961 1147.41 30.8633 1146.83 30.8633C1145.9 30.8633 1145.16 31.1211 1144.59 31.6367C1144.03 32.1523 1143.75 32.7617 1143.75 33.4648C1143.75 33.7461 1143.79 33.9883 1143.87 34.1914C1143.95 34.3867 1144.05 34.5508 1144.17 34.6836C1144.3 34.8086 1144.49 34.9141 1144.73 35C1144.98 35.0859 1145.22 35.1562 1145.47 35.2109C1145.73 35.2578 1146.06 35.3047 1146.47 35.3516C1146.85 35.3984 1147.2 35.457 1147.51 35.5273C1147.82 35.5977 1148.18 35.7188 1148.58 35.8906C1148.98 36.0625 1149.31 36.2734 1149.57 36.5234C1149.85 36.7734 1150.08 37.1133 1150.27 37.543C1150.46 37.9648 1150.56 38.4531 1150.56 39.0078C1150.56 39.6875 1150.42 40.3164 1150.14 40.8945C1149.86 41.4805 1149.5 41.9688 1149.04 42.3594C1148.58 42.7578 1148.05 43.0977 1147.45 43.3789C1146.86 43.6602 1146.24 43.8633 1145.6 43.9883C1144.96 44.1211 1144.32 44.1875 1143.68 44.1875C1142.8 44.1875 1141.95 44.1055 1141.15 43.9414C1140.34 43.7773 1139.6 43.5234 1138.91 43.1797C1138.22 42.8438 1137.62 42.4336 1137.12 41.9492C1136.62 41.4727 1136.22 40.8984 1135.93 40.2266C1135.65 39.5625 1135.51 38.8398 1135.51 38.0586C1135.51 36.4102 1135.8 34.6953 1136.38 32.9141L1136.51 32.5039L1138.73 33.207L1138.61 33.6172C1138.11 35.1875 1137.86 36.668 1137.86 38.0586C1137.86 39.168 1138.36 40.0742 1139.37 40.7773C1140.38 41.4883 1141.81 41.8438 1143.68 41.8438C1145 41.8438 1146.09 41.5625 1146.94 41C1147.79 40.4375 1148.21 39.7734 1148.21 39.0078C1148.21 38.5234 1148.09 38.207 1147.85 38.0586C1147.61 37.9102 1147.05 37.7812 1146.19 37.6719C1145.9 37.6328 1145.64 37.5938 1145.4 37.5547C1145.17 37.5156 1144.88 37.4492 1144.54 37.3555C1144.19 37.2539 1143.88 37.1406 1143.61 37.0156C1143.34 36.8906 1143.07 36.7188 1142.78 36.5C1142.49 36.2812 1142.25 36.0391 1142.06 35.7734C1141.88 35.5 1141.72 35.168 1141.59 34.7773C1141.47 34.3789 1141.41 33.9414 1141.41 33.4648C1141.41 32.0664 1141.93 30.8945 1142.98 29.9492C1144.03 28.9961 1145.32 28.5195 1146.83 28.5195C1147.7 28.5195 1148.61 28.707 1149.57 29.082L1150.2 29.3281ZM1157.4 27.125C1158.8 28.2969 1159.86 29.457 1160.57 30.6055C1161.29 31.7461 1161.64 32.9336 1161.64 34.168C1161.64 34.7852 1161.52 35.3398 1161.27 35.832C1161.02 36.3242 1160.7 36.7227 1160.3 37.0273C1159.91 37.3242 1159.44 37.5703 1158.9 37.7656C1158.37 37.9609 1157.84 38.0977 1157.32 38.1758C1156.8 38.2539 1156.27 38.293 1155.71 38.293C1154.68 38.293 1153.68 38.1602 1152.69 37.8945L1153.27 35.6445C1154.09 35.8477 1154.91 35.9492 1155.71 35.9492C1156.91 35.9492 1157.8 35.7852 1158.4 35.457C1159 35.1211 1159.3 34.6914 1159.3 34.168C1159.3 32.5586 1158.17 30.8047 1155.9 28.9062L1157.4 27.125ZM1166.66 22.9297V33.418C1166.66 34.3633 1166.8 35 1167.07 35.3281C1167.41 35.7422 1168.24 35.9492 1169.54 35.9492V38.293C1167.66 38.293 1166.27 37.7969 1165.38 36.8047C1164.67 35.9922 1164.32 34.8633 1164.32 33.418V22.9297H1166.66ZM1173.41 35.6211C1175.95 35.1211 1177.22 34.168 1177.22 32.7617C1177.22 32.0742 1177.12 31.6211 1176.91 31.4023C1176.71 31.1758 1176.38 31.0625 1175.92 31.0625C1175.26 31.0625 1174.7 31.4336 1174.24 32.1758C1173.78 32.9102 1173.5 34.0586 1173.41 35.6211ZM1177.66 44.1758H1177.23C1176.26 44.1758 1175.35 43.8945 1174.49 43.332C1173.64 42.7773 1172.93 42.0547 1172.37 41.1641C1171.81 40.2734 1171.43 39.3008 1171.22 38.2461C1170.71 38.2773 1170.15 38.293 1169.54 38.293C1169.22 38.293 1168.95 38.1797 1168.72 37.9531C1168.49 37.7188 1168.37 37.4414 1168.37 37.1211C1168.37 36.8008 1168.49 36.5273 1168.72 36.3008C1168.95 36.0664 1169.22 35.9492 1169.54 35.9492C1169.94 35.9492 1170.45 35.9336 1171.05 35.9023C1171.09 35.1211 1171.16 34.3906 1171.29 33.7109C1171.41 33.0234 1171.6 32.3711 1171.85 31.7539C1172.11 31.1367 1172.42 30.6055 1172.78 30.1602C1173.14 29.7148 1173.59 29.3633 1174.12 29.1055C1174.66 28.8477 1175.26 28.7188 1175.92 28.7188C1177 28.7188 1177.88 29.0898 1178.55 29.832C1179.23 30.5742 1179.56 31.5508 1179.56 32.7617C1179.56 33.4727 1179.41 34.125 1179.11 34.7188C1178.81 35.3125 1178.38 35.8203 1177.83 36.2422C1177.28 36.6641 1176.65 37.0195 1175.93 37.3086C1175.22 37.5977 1174.43 37.8203 1173.55 37.9766C1173.77 38.9219 1174.16 39.7344 1174.73 40.4141C1175.31 41.0938 1175.93 41.5312 1176.57 41.7266V39.875C1176.57 39.1875 1176.7 38.582 1176.94 38.0586C1177.19 37.543 1177.53 37.1367 1177.96 36.8398C1178.39 36.5352 1178.86 36.3125 1179.39 36.1719C1179.91 36.0234 1180.48 35.9492 1181.1 35.9492V38.293C1180.2 38.293 1179.61 38.3945 1179.33 38.5977C1179.05 38.8086 1178.92 39.2344 1178.92 39.875V43.0859L1177.66 44.1758ZM1182.2 26.1172L1183.98 24.3359L1185.76 26.1172L1183.98 27.8984L1182.2 26.1172ZM1181.1 35.9492C1182.29 35.9492 1183.13 35.7109 1183.61 35.2344C1184.15 34.6875 1184.43 33.5898 1184.43 31.9414V31.0391H1186.77V31.9414C1186.77 33.5352 1187.03 34.6172 1187.54 35.1875C1188.01 35.6953 1188.86 35.9492 1190.09 35.9492V38.293C1188.11 38.293 1186.61 37.6992 1185.6 36.5117C1184.63 37.6992 1183.13 38.293 1181.1 38.293C1180.78 38.293 1180.5 38.1797 1180.28 37.9531C1180.04 37.7188 1179.93 37.4414 1179.93 37.1211C1179.93 36.8008 1180.04 36.5273 1180.28 36.3008C1180.5 36.0664 1180.78 35.9492 1181.1 35.9492ZM1198.63 23.6562L1200.41 21.875L1202.19 23.6562L1200.41 25.4375L1198.63 23.6562ZM1200.57 26.9844L1202.36 25.2031L1204.14 26.9844L1202.36 28.7656L1200.57 26.9844ZM1196.7 26.9844L1198.48 25.2031L1200.26 26.9844L1198.48 28.7656L1196.7 26.9844ZM1197.5 35.9492C1198.08 35.9492 1198.52 35.6953 1198.8 35.1875C1199.09 34.6875 1199.24 33.9258 1199.24 32.9023V31.0391H1201.58V32.9023C1201.58 34.082 1201.8 34.9375 1202.24 35.4688C1202.51 35.7891 1202.87 35.9492 1203.32 35.9492C1203.87 35.9492 1204.27 35.75 1204.52 35.3516C1204.72 35.0234 1204.82 34.5664 1204.82 33.9805C1204.82 33.3555 1204.73 32.543 1204.56 31.543L1204.29 29.9023L1206.61 29.5508L1206.98 32.0234C1207.12 32.8984 1207.27 33.6094 1207.44 34.1562C1207.61 34.6953 1207.88 35.1094 1208.23 35.3984C1208.69 35.7656 1209.42 35.9492 1210.43 35.9492V38.293C1208.62 38.293 1207.26 37.8086 1206.34 36.8398C1206 37.293 1205.56 37.6484 1205.04 37.9062C1204.52 38.1641 1203.94 38.293 1203.32 38.293C1202.72 38.293 1202.18 38.1719 1201.68 37.9297C1201.18 37.6875 1200.75 37.3555 1200.41 36.9336C1200.07 37.3555 1199.64 37.6875 1199.14 37.9297C1198.64 38.1719 1198.1 38.293 1197.5 38.293C1196.85 38.293 1196.25 38.1445 1195.7 37.8477C1195.16 37.5508 1194.72 37.1523 1194.39 36.6523C1193.44 37.7461 1192.01 38.293 1190.1 38.293C1189.78 38.293 1189.5 38.1797 1189.28 37.9531C1189.04 37.7188 1188.93 37.4414 1188.93 37.1211C1188.93 36.8008 1189.04 36.5273 1189.28 36.3008C1189.5 36.0664 1189.78 35.9492 1190.1 35.9492C1190.79 35.9492 1191.35 35.8867 1191.77 35.7617C1192.2 35.6367 1192.54 35.4258 1192.78 35.1289C1193.21 34.5977 1193.43 33.5352 1193.43 31.9414V31.0391H1195.77V32.9023C1195.77 34.0977 1195.99 34.9531 1196.43 35.4688C1196.7 35.7891 1197.06 35.9492 1197.5 35.9492ZM1210.92 42.5117L1212.7 40.7305L1214.48 42.5117L1212.7 44.293L1210.92 42.5117ZM1207.04 42.5117L1208.82 40.7305L1210.61 42.5117L1208.82 44.293L1207.04 42.5117ZM1210.45 35.9492C1211.65 35.9492 1212.48 35.7109 1212.96 35.2344C1213.51 34.6875 1213.78 33.5898 1213.78 31.9414V31.0391H1216.12V31.9414C1216.12 33.5352 1216.38 34.6172 1216.9 35.1875C1217.37 35.6953 1218.21 35.9492 1219.44 35.9492V38.293C1217.46 38.293 1215.97 37.6992 1214.95 36.5117C1213.98 37.6992 1212.48 38.293 1210.45 38.293C1210.13 38.293 1209.86 38.1797 1209.63 37.9531C1209.4 37.7188 1209.28 37.4414 1209.28 37.1211C1209.28 36.8008 1209.4 36.5273 1209.63 36.3008C1209.86 36.0664 1210.13 35.9492 1210.45 35.9492ZM1218.33 45.8281L1220.11 44.0469L1221.89 45.8281L1220.11 47.6094L1218.33 45.8281ZM1220.26 42.5L1222.04 40.7188L1223.82 42.5L1222.04 44.2812L1220.26 42.5ZM1216.38 42.5L1218.16 40.7188L1219.95 42.5L1218.16 44.2812L1216.38 42.5ZM1219.45 35.9492C1220.09 35.9492 1220.63 35.875 1221.09 35.7266C1221.55 35.5781 1221.86 35.418 1222.01 35.2461C1222.41 34.7695 1222.61 33.957 1222.61 32.8086C1222.61 31.7852 1222.37 30.5469 1221.89 29.0938L1224.12 28.3672C1224.67 30.0312 1224.95 31.5117 1224.95 32.8086C1224.95 34.5273 1224.57 35.8398 1223.81 36.7461C1222.95 37.7773 1221.49 38.293 1219.45 38.293C1219.13 38.293 1218.86 38.1797 1218.63 37.9531C1218.4 37.7188 1218.28 37.4414 1218.28 37.1211C1218.28 36.8008 1218.4 36.5273 1218.63 36.3008C1218.86 36.0664 1219.13 35.9492 1219.45 35.9492Z" fill="#DE3800"/>
</svg>
